<svg width="240" height="240" viewBox="0 0 240 240" fill="none" xmlns="http://www.w3.org/2000/svg">
<path d="M138.135 56.2196C138.102 56.0548 138.362 55.6922 138.72 55.4615C139.077 55.1978 139.792 55 140.345 55C140.865 55 141.547 55.2307 141.84 55.4944C142.1 55.7911 142.587 56.4174 142.88 56.9448C143.172 57.4392 143.432 57.9995 143.432 58.1644C143.432 58.3292 143.725 59.1203 144.05 59.9113C144.375 60.6695 144.765 61.8891 144.895 62.6142C144.992 63.3394 145.122 64.2953 145.187 64.7568C145.22 65.2182 145.382 65.8115 145.545 66.0752C145.707 66.3389 145.837 67.5256 145.902 68.7122C145.935 69.8988 146.032 71.1514 146.162 71.514C146.26 71.8766 146.487 73.5906 146.617 75.3046C146.812 77.7768 147.04 78.6338 147.592 79.4249C148.015 79.9852 148.34 80.6115 148.307 80.8422C148.307 81.04 148.6 81.6333 148.957 82.1607C149.315 82.6551 149.64 83.677 149.705 84.4021C149.737 85.1603 149.9 85.7206 150.095 85.6217C150.29 85.5558 150.517 85.9843 150.68 86.5776C150.81 87.1709 151.005 88.028 151.102 88.4894C151.2 88.9509 151.297 92.5108 151.362 96.4003C151.395 100.29 151.33 103.85 151.232 104.311C151.102 104.773 150.842 105.102 150.615 105.069C150.42 105.003 150.322 105.201 150.452 105.564C150.582 105.893 150.42 106.322 150.03 106.619C149.672 106.882 149.282 107.509 149.185 108.036C149.055 108.53 148.827 108.926 148.632 108.926C148.437 108.926 148.405 108.431 148.502 107.706C148.632 107.014 148.892 106.157 149.087 105.794C149.282 105.432 149.477 104.839 149.542 104.476C149.575 104.113 149.64 101.345 149.607 98.3121C149.607 94.8181 149.737 92.7745 149.932 92.7745C150.127 92.7745 150.16 92.4449 150.062 92.0493C149.965 91.6208 149.737 90.632 149.542 89.8079C149.38 88.9839 149.087 87.962 148.925 87.5006C148.762 87.0391 148.567 86.1491 148.502 85.5228C148.437 84.8966 148.21 84.3362 148.015 84.3032C147.82 84.2373 147.3 83.4792 146.845 82.5563C146.39 81.6663 146.097 80.7763 146.195 80.5785C146.292 80.4137 146.227 80.2489 146.032 80.2489C145.837 80.2489 145.772 80.0182 145.87 79.7545C145.967 79.4908 145.902 79.2601 145.707 79.2601C145.512 79.2601 145.252 78.5349 145.057 77.612C144.862 76.722 144.732 74.7113 144.732 73.1621C144.732 71.6129 144.44 68.6133 144.082 66.5037C143.757 64.3612 143.367 62.3505 143.27 62.0539C143.172 61.7243 142.977 61.4606 142.782 61.4606C142.587 61.4606 142.457 61.1639 142.457 60.8013C142.457 60.4387 142.327 60.0762 142.132 59.9773C141.937 59.8784 141.807 59.5817 141.807 59.318C141.807 59.0543 141.482 58.4281 141.06 57.9666C140.637 57.4722 139.987 57.1096 139.467 57.1096C138.98 57.1096 138.362 57.3403 138.102 57.637C137.81 57.9336 137.582 58.2632 137.582 58.4281C137.582 58.5599 137.225 59.1203 136.77 59.6476C136.315 60.208 135.6 61.0321 135.21 61.5265C134.82 62.0209 134.527 62.4824 134.592 62.5153C134.657 62.5813 134.365 63.1416 133.942 63.7679C133.52 64.4271 132.74 65.383 132.187 65.9104C131.667 66.4708 131.245 67.0971 131.31 67.3278C131.375 67.5256 131.277 67.7233 131.082 67.7233C130.887 67.7233 130.757 67.5256 130.757 67.3278C130.757 67.0971 131.342 66.0423 132.057 65.0205C132.772 63.9657 133.292 63.1087 133.195 63.1087C133.097 63.1087 133.39 62.7131 133.845 62.2187C134.3 61.6913 134.722 61.0321 134.82 60.7354C134.917 60.4058 135.112 60.1421 135.307 60.1421C135.502 60.1421 135.6 60.0102 135.535 59.8454C135.502 59.7136 135.957 58.8895 136.51 58.0325C137.095 57.2085 137.712 56.5163 137.907 56.5163C138.102 56.5163 138.2 56.3844 138.135 56.2196Z" fill="#D44A7B"/>
<path fill-rule="evenodd" clip-rule="evenodd" d="M156.367 125.077C156.497 125.077 156.855 125.275 157.147 125.506C157.472 125.737 157.7 126 157.732 126.132C157.732 126.297 157.342 126.297 156.822 126.198C156.335 126.066 155.912 125.934 155.847 125.868C155.815 125.802 155.847 125.605 155.945 125.407C156.075 125.209 156.237 125.077 156.367 125.077ZM153.475 125.407C153.605 125.407 153.702 125.704 153.637 126.066C153.54 126.561 153.67 126.725 154.222 126.725C154.645 126.725 155.522 126.89 156.172 127.055C157.18 127.319 157.375 127.516 157.245 128.044C157.147 128.439 157.277 128.769 157.57 128.868C157.83 128.967 158.057 129.165 158.057 129.362C158.057 129.56 157.732 129.692 157.31 129.692C156.79 129.692 156.497 129.428 156.27 128.637C155.945 127.648 155.815 127.549 154.71 127.648C154.06 127.681 153.507 127.582 153.507 127.385C153.507 127.187 153.28 127.055 153.02 127.055C152.76 127.055 152.532 127.187 152.532 127.385C152.532 127.582 152.337 127.714 152.11 127.714C151.915 127.714 151.492 127.549 151.232 127.385C150.81 127.121 150.842 127.022 151.395 126.594C151.882 126.264 152.11 126.231 152.24 126.495C152.402 126.758 152.597 126.627 152.825 126.165C153.02 125.737 153.312 125.407 153.475 125.407V125.407ZM158.577 127.22L159.227 127.879C159.617 128.275 159.78 128.67 159.617 128.868C159.487 129.066 159.455 129.329 159.617 129.461C159.747 129.626 159.877 130.285 159.877 130.945C159.91 131.637 160.105 132.56 160.3 133.087C160.495 133.581 160.657 134.043 160.657 134.142C160.657 134.241 160.43 134.307 160.17 134.307C159.877 134.307 159.682 134.01 159.682 133.549C159.715 133.153 159.552 131.999 159.39 131.01C159.227 130.022 158.967 128.736 158.837 128.209L158.577 127.22ZM141.515 129.132C141.677 129.428 142.067 129.659 142.36 129.593C142.685 129.527 143.27 129.791 143.66 130.153C144.18 130.648 144.31 130.977 144.082 131.274C143.855 131.538 143.92 131.999 144.245 132.659C144.505 133.186 144.635 133.911 144.537 134.241C144.407 134.537 144.407 135.296 144.537 135.889C144.635 136.449 144.862 136.944 145.057 136.944C145.22 136.944 145.415 136.251 145.545 133.812L145.935 134.966C146.195 135.856 146.292 135.955 146.325 135.394C146.357 134.933 146.585 134.636 146.91 134.603C147.235 134.57 147.722 134.537 147.982 134.504C148.242 134.504 148.567 134.603 148.697 134.801C148.827 134.999 148.957 134.735 148.957 134.208C148.957 133.713 149.087 133.384 149.282 133.483C149.445 133.581 149.575 134.01 149.51 134.471C149.477 135.032 149.25 135.296 148.795 135.296C148.437 135.328 147.885 135.658 147.56 136.054C146.975 136.746 146.975 136.779 147.625 137.043C148.21 137.24 148.242 137.405 147.982 138.097C147.787 138.625 147.755 139.482 147.95 140.504C148.145 141.459 148.145 142.086 147.95 142.152C147.787 142.185 147.722 142.58 147.82 143.042C147.95 143.767 147.852 143.866 146.91 143.997C146.357 144.063 145.74 143.932 145.61 143.734C145.415 143.47 145.285 143.47 145.187 143.8C145.122 143.997 144.765 144.195 144.407 144.195C143.92 144.195 143.79 143.997 143.822 143.371C143.887 142.943 143.757 142.547 143.595 142.547C143.4 142.547 143.432 142.415 143.66 142.283C143.887 142.152 144.05 141.064 144.082 139.416C144.082 137.965 144.017 136.317 143.887 135.79C143.757 135.263 143.432 134.537 143.14 134.208C142.847 133.878 142.392 133.713 142.132 133.812C141.84 133.911 141.45 133.647 141.125 133.087C140.832 132.56 140.637 131.966 140.702 131.736C140.767 131.538 140.67 131.34 140.507 131.34C140.312 131.34 140.247 131.472 140.345 131.67C140.442 131.867 140.28 131.999 140.02 131.999C139.76 131.999 139.467 131.867 139.37 131.67C139.272 131.472 139.045 131.34 138.882 131.34C138.687 131.34 138.622 131.472 138.72 131.67C138.817 131.867 138.622 132.131 138.297 132.296C138.005 132.461 137.647 133.054 137.485 133.614C137.355 134.208 137.062 134.636 136.77 134.636C136.477 134.636 136.347 134.439 136.445 134.142C136.542 133.878 136.412 133.351 136.185 132.988C135.99 132.626 135.6 132.329 135.372 132.329C135.177 132.329 135.047 132.131 135.145 131.9C135.242 131.703 135.99 131.472 136.867 131.439C137.712 131.373 138.525 131.208 138.72 131.01C138.937 130.813 139.197 130.846 139.5 131.109C139.857 131.406 139.955 131.406 140.052 131.076C140.15 130.78 140.377 130.78 140.832 131.01C141.32 131.241 141.482 131.241 141.482 130.912C141.45 130.648 141.612 130.648 141.97 131.01C142.23 131.274 142.555 131.406 142.62 131.241C142.717 131.109 142.49 130.879 142.132 130.681C141.775 130.483 141.482 130.45 141.482 130.582C141.482 130.747 141.32 130.582 141.157 130.252C140.962 129.956 140.93 129.428 141.027 129.099C141.255 128.571 141.255 128.571 141.515 129.099V129.132ZM137.55 129.165C139.63 129.198 139.63 129.198 138.947 129.791C138.557 130.12 137.94 130.384 137.582 130.384C137.225 130.384 136.835 130.186 136.672 129.989C136.51 129.692 136.575 129.659 136.932 129.857C137.355 130.12 137.355 130.088 136.965 129.692C136.575 129.329 136.477 129.296 136.315 129.659C136.185 129.967 135.849 130.044 135.307 129.89C134.69 129.725 134.592 129.593 134.982 129.428C135.242 129.263 136.412 129.165 137.55 129.165ZM150.972 129.231C151.2 129.296 151.492 129.56 151.59 129.791C151.72 130.022 151.752 130.714 151.687 131.274C151.59 131.966 151.395 132.362 151.07 132.362C150.81 132.362 150.582 132.494 150.582 132.692C150.582 132.889 150.355 133.021 150.095 133.021C149.835 133.021 149.607 132.889 149.607 132.692C149.607 132.494 149.932 132.296 151.07 132.032L150.257 131.373C149.802 131.01 149.25 130.714 149.022 130.714C148.827 130.714 148.697 130.483 148.795 130.219C148.892 129.956 149.087 129.791 149.282 129.89C149.445 129.989 149.835 129.824 150.095 129.56C150.355 129.296 150.777 129.165 150.972 129.231ZM131.537 130.714C131.765 130.714 131.895 130.846 131.83 131.043C131.765 131.241 132.09 131.373 132.545 131.373C133 131.373 133.617 131.505 133.91 131.67C134.235 131.835 134.592 132.428 134.722 132.988C134.885 133.549 134.852 134.34 134.365 135.493V134.735C134.332 134.34 134.17 134.01 134.007 134.01C133.812 134.01 133.682 133.713 133.682 133.351C133.682 132.988 133.52 132.692 133.357 132.692C133.162 132.692 133 133.45 132.935 134.373C132.902 135.263 132.967 136.12 133.13 136.251C133.26 136.383 133 136.68 132.545 136.878C132.09 137.108 131.797 137.174 131.895 136.977C131.992 136.779 131.862 136.416 131.635 136.12C131.31 135.691 131.342 135.493 131.797 135.131C132.122 134.867 132.252 134.603 132.057 134.504C131.862 134.406 131.57 134.01 131.342 133.581C131.017 132.955 131.017 132.889 131.505 133.087C131.895 133.285 132.09 133.153 132.22 132.692C132.328 132.252 132.22 132.032 131.895 132.032C131.635 132.032 131.342 131.736 131.277 131.373C131.212 131.01 131.342 130.714 131.537 130.714V130.714ZM140.897 134.34C141.807 134.34 142.555 134.504 142.685 134.735C142.815 134.966 142.717 135.197 142.522 135.23C142.262 135.296 142.132 136.087 142.132 137.471C142.132 139.02 142.035 139.581 141.71 139.515C141.482 139.449 141.352 138.987 141.45 138.262C141.515 137.636 141.58 136.911 141.58 136.647C141.58 136.383 141.547 135.823 141.515 135.394C141.482 134.9 141.32 134.735 140.995 134.834C140.735 134.933 140.247 134.867 139.922 134.669C139.5 134.439 139.727 134.373 140.897 134.34V134.34ZM155.457 134.669C155.652 134.669 155.782 134.801 155.782 134.999C155.782 135.197 155.62 135.394 155.457 135.493C155.262 135.592 155.132 136.12 155.132 136.647C155.132 137.207 155.002 137.57 154.807 137.471C154.612 137.372 154.547 137.108 154.612 136.878C154.677 136.68 154.84 136.087 154.937 135.559C155.067 135.065 155.295 134.669 155.457 134.669ZM157.797 134.669C157.96 134.669 158.057 135.197 158.057 135.823C158.057 136.449 157.862 137.043 157.635 137.108C157.44 137.207 157.05 137.075 156.822 136.878C156.595 136.647 156.4 136.284 156.367 136.021C156.302 135.757 156.562 135.361 156.92 135.131C157.277 134.9 157.667 134.669 157.797 134.669ZM158.805 134.999C159 134.999 159.195 135.328 159.292 135.757C159.357 136.153 159.487 136.68 159.552 136.911C159.639 137.174 159.498 137.229 159.13 137.075C158.675 136.845 158.61 136.977 158.772 137.801C158.87 138.328 158.74 139.284 158.512 139.877C158.252 140.438 158.025 140.932 157.96 140.932C157.927 140.932 157.862 140.372 157.83 139.712C157.797 139.02 157.927 138.262 158.155 137.998C158.382 137.735 158.512 136.977 158.512 136.251C158.48 135.559 158.61 134.999 158.805 134.999ZM139.532 135.328C139.695 135.328 140.085 135.559 140.345 135.823C140.637 136.12 140.702 136.383 140.507 136.482C140.312 136.581 140.247 136.944 140.345 137.306C140.453 137.746 140.345 137.965 140.02 137.965C139.727 137.965 139.5 138.328 139.402 138.888C139.37 139.383 139.272 138.789 139.24 137.57C139.24 136.251 139.337 135.328 139.532 135.328ZM131.472 137.965C131.7 137.965 132.187 138.229 132.545 138.559C132.902 138.888 133.455 139.251 133.747 139.383C134.072 139.515 134.397 139.482 134.495 139.284C134.592 139.086 134.917 138.954 135.21 138.954C135.535 138.987 136.217 139.185 136.77 139.449C137.452 139.778 137.517 139.877 136.997 139.778C136.521 139.668 136.326 139.756 136.412 140.042C136.445 140.24 136.737 140.405 137.062 140.339C137.355 140.306 137.68 140.438 137.81 140.635C137.972 140.833 137.842 141.13 137.582 141.295C137.322 141.459 136.835 141.591 136.51 141.591C136.217 141.591 135.697 141.196 135.372 140.668C135.015 140.075 134.592 139.811 134.072 139.844C133.455 139.943 133.39 140.108 133.487 141.163C133.585 141.855 133.585 142.514 133.487 142.646C133.422 142.811 133.13 142.712 132.837 142.481C132.545 142.251 132.48 142.02 132.675 141.921C132.902 141.822 132.87 141.361 132.61 140.569C132.35 139.745 132.057 139.449 131.732 139.581C131.407 139.69 131.321 139.614 131.472 139.35C131.635 139.119 131.57 138.888 131.407 138.789C131.212 138.691 131.082 138.493 131.082 138.295C131.082 138.097 131.277 137.965 131.472 137.965V137.965ZM140.865 141.064C141.027 141.13 141.19 141.855 141.19 142.646C141.19 143.437 141.385 144.162 141.58 144.261C141.872 144.426 141.84 144.558 141.482 144.756C141.19 144.92 140.962 144.855 140.897 144.624C140.865 144.393 140.637 144.228 140.41 144.228C140.117 144.228 140.117 144.294 140.442 144.624C140.67 144.855 140.832 145.316 140.832 145.613C140.832 145.942 140.605 146.272 140.345 146.371C139.987 146.503 139.922 146.371 140.085 145.942C140.215 145.58 140.052 145.25 139.662 144.953C139.337 144.723 139.24 144.558 139.435 144.558C139.695 144.558 139.597 144.294 139.207 143.899C138.817 143.503 138.622 142.976 138.72 142.58C138.817 142.185 139.142 141.921 139.532 141.921C139.89 141.921 140.28 141.69 140.377 141.393C140.475 141.13 140.702 140.965 140.865 141.064ZM155.587 141.591C155.88 141.591 156.172 141.723 156.27 141.921C156.367 142.119 156.205 142.316 155.945 142.415C155.685 142.514 155.457 142.877 155.457 143.239C155.457 143.602 155.23 143.965 154.97 144.063C154.71 144.162 154.19 144.228 153.832 144.228C153.475 144.228 153.182 144.096 153.182 143.899C153.182 143.701 153.54 143.569 153.995 143.569C154.45 143.569 154.872 143.437 154.97 143.239C155.067 143.042 154.97 142.844 154.807 142.745C154.612 142.646 154.482 142.448 154.482 142.251C154.482 142.053 154.71 141.987 154.97 142.086C155.23 142.185 155.36 142.119 155.262 141.921C155.165 141.723 155.295 141.591 155.587 141.591ZM134.95 141.921C135.145 141.921 135.502 142.218 135.697 142.58C135.925 142.976 136.347 143.239 136.607 143.173C136.9 143.108 137.192 143.206 137.257 143.404C137.355 143.602 137.095 143.767 136.672 143.8C136.282 143.866 135.957 143.767 135.957 143.569C135.957 143.371 135.665 143.173 135.307 143.075C134.95 142.976 134.592 143.108 134.527 143.305C134.43 143.635 134.3 143.635 133.975 143.338C133.585 143.042 133.65 142.943 134.235 142.778C134.657 142.679 134.885 142.448 134.787 142.251C134.69 142.053 134.755 141.921 134.95 141.921V141.921ZM149.867 144.624C150.225 144.69 150.42 145.052 150.42 145.646C150.42 146.14 150.225 146.536 149.997 146.536C149.802 146.536 149.64 146.865 149.64 147.261C149.672 147.788 149.705 147.854 149.802 147.426C149.867 147.129 150.062 146.865 150.257 146.865C150.42 146.865 150.647 146.964 150.712 147.096C150.81 147.261 150.68 148.085 150.485 149.008C150.16 150.59 150.127 150.623 149.9 149.667C149.77 149.14 149.672 148.942 149.64 149.238C149.64 149.568 149.445 149.766 149.282 149.667C149.087 149.568 148.957 149.799 148.957 150.161C148.957 150.524 148.795 150.821 148.632 150.821C148.405 150.821 148.405 150.458 148.6 149.733C148.762 149.173 148.86 148.612 148.762 148.513C148.697 148.414 148.827 147.887 149.12 147.36C149.38 146.832 149.542 145.942 149.477 145.448C149.347 144.69 149.445 144.525 149.867 144.624V144.624ZM144.472 146.733C144.667 146.832 144.797 147.129 144.765 147.393C144.732 147.656 144.96 147.953 145.252 148.085C145.642 148.283 145.74 148.612 145.577 149.337C145.415 150.128 145.512 150.425 146.097 150.854C146.715 151.282 146.747 151.381 146.26 151.348C145.967 151.348 145.707 151.216 145.707 151.051C145.707 150.92 145.382 150.689 144.96 150.524C144.57 150.326 144.472 150.194 144.732 150.194C145.155 150.194 145.155 150.128 144.732 149.667C144.472 149.37 143.985 149.14 143.66 149.173C143.367 149.173 142.945 148.81 142.782 148.348C142.587 147.887 142.457 147.459 142.457 147.36C142.457 147.261 142.685 147.261 142.945 147.36C143.205 147.459 143.595 147.294 143.79 147.03C143.985 146.766 144.277 146.634 144.472 146.733V146.733ZM153.377 146.536C153.377 146.536 153.41 146.931 153.41 147.426C153.377 147.953 153.507 148.645 153.897 149.667L153.377 149.008C153.085 148.645 152.857 148.546 152.857 148.744C152.857 148.975 152.662 149.074 152.435 148.975C152.142 148.81 152.142 148.711 152.5 148.546C152.727 148.447 152.857 148.118 152.792 147.854C152.695 147.59 152.792 147.195 152.987 146.964C153.182 146.733 153.345 146.569 153.377 146.536V146.536ZM146.715 148.645C146.877 148.744 146.942 149.041 146.845 149.238C146.747 149.469 147.007 149.997 147.397 150.425C147.82 150.854 148.567 151.216 149.055 151.249C149.575 151.282 150.16 151.513 150.355 151.744C150.68 152.073 150.55 152.172 149.77 152.139C149.087 152.139 148.372 151.711 147.397 150.821C146.52 149.964 146.097 149.304 146.227 148.975C146.325 148.711 146.52 148.546 146.715 148.645V148.645ZM152.207 149.502C152.37 149.502 152.532 149.7 152.532 149.898C152.532 150.128 152.305 150.623 152.045 150.985C151.785 151.348 151.46 151.546 151.33 151.381C151.167 151.249 151.265 150.788 151.46 150.326C151.687 149.865 152.012 149.502 152.207 149.502ZM140.93 150.293C141.19 150.326 141.32 150.458 141.222 150.656C141.092 150.854 141.222 150.887 141.547 150.722C141.937 150.568 142.187 150.656 142.295 150.985C142.392 151.249 142.555 151.414 142.685 151.315C142.847 151.249 143.14 151.546 143.335 151.974C143.562 152.436 143.66 152.798 143.497 152.798C143.367 152.798 142.815 152.436 142.295 151.974C141.742 151.513 141.222 151.15 141.06 151.15C140.93 151.15 140.735 150.952 140.637 150.722C140.507 150.458 140.637 150.293 140.93 150.293V150.293ZM145.025 152.502C145.545 152.699 146 152.963 146 153.062C146.032 153.194 145.805 153.589 145.512 153.952C145.252 154.315 145.09 154.479 145.187 154.282C145.285 154.084 145.09 153.622 144.732 153.194C144.375 152.798 144.082 152.403 144.05 152.337C144.05 152.238 144.472 152.337 145.025 152.502V152.502Z" fill="#DD799E"/>
<path d="M135.015 70.5251C136.12 68.3496 137.063 66.4708 137.128 66.3389C137.225 66.1741 137.583 66.0752 137.908 66.0752C138.265 66.0752 138.688 66.3389 138.85 66.6685C138.98 66.9652 139.208 68.7781 139.305 70.6899C139.435 72.6017 139.403 74.7113 139.273 75.4035C139.143 76.0957 138.818 76.722 138.558 76.7879C138.298 76.8868 137.128 76.689 135.99 76.3594C134.755 76.0298 133.748 75.5353 133.488 75.1398C133.098 74.5465 133.26 74.052 135.015 70.5251Z" fill="#F3D6E0"/>
<path d="M92.635 74.2498C92.7975 72.7336 92.895 70.591 92.895 69.4703C92.895 67.4267 92.895 67.3937 93.7725 67.3937C94.4875 67.3937 94.9425 67.7563 95.885 69.1407C96.5675 70.0636 97.51 71.8436 97.9975 73.0961C98.5175 74.3157 98.8425 75.5353 98.745 75.799C98.6475 76.0627 98.1925 76.3923 97.6725 76.4912C97.185 76.5901 96.5675 76.722 96.3075 76.7879C96.0475 76.8208 95.2675 77.1175 94.585 77.4142C93.5125 77.8756 93.3175 77.8756 92.895 77.4471C92.505 77.0516 92.44 76.4583 92.635 74.2498Z" fill="#F3D6E0"/>
<path d="M133.13 105.729C133.52 105.333 134.43 104.773 135.145 104.509C135.86 104.245 136.64 104.015 136.835 104.015C137.063 103.982 137.94 104.278 138.785 104.608C139.663 104.97 140.93 105.333 141.645 105.432C142.458 105.531 143.173 105.893 143.53 106.355C143.855 106.783 144.115 107.212 144.083 107.377C144.083 107.509 143.693 108.069 143.173 108.596C142.653 109.19 141.19 110.047 139.533 110.739C138.005 111.365 136.185 111.892 135.47 111.892C134.593 111.925 133.878 111.662 133.228 111.167C132.708 110.739 132.155 110.113 131.96 109.75C131.765 109.31 131.787 108.651 132.025 107.772C132.22 107.047 132.708 106.124 133.13 105.729Z" fill="#F3D6E0"/>
<path d="M96.6 110.508C97.8675 109.124 97.965 109.091 100.435 108.893C101.833 108.794 103.36 108.662 103.848 108.662C104.368 108.629 105.278 108.827 105.895 109.091C106.513 109.354 107.065 109.684 107.065 109.849C107.098 109.981 107.163 111.134 107.228 112.387C107.26 113.639 107.195 114.958 107 115.288C106.838 115.584 106.155 116.013 105.473 116.21C104.563 116.507 103.685 116.507 101.898 116.21C100.63 116.013 98.94 115.584 98.1925 115.288C97.445 114.958 96.5025 114.299 96.08 113.804C95.69 113.277 95.3325 112.651 95.3325 112.387C95.3325 112.123 95.9175 111.266 96.6 110.508Z" fill="#F3D6E0"/>
<path d="M150.972 128.406C151.622 128.044 151.655 127.912 151.232 127.648C150.842 127.385 150.842 127.352 151.297 127.516C151.622 127.615 152.11 127.714 152.37 127.714C152.76 127.714 152.792 127.846 152.532 128.373C152.337 128.736 152.207 129.692 152.207 130.516C152.207 131.34 152.337 131.999 152.532 131.999C152.727 131.999 152.89 131.802 152.955 131.571C153.052 131.241 153.117 131.241 153.28 131.571C153.41 131.834 153.182 132.164 151.687 132.823L151.785 131.406C151.85 130.516 151.72 129.857 151.395 129.527C151.135 129.263 150.777 129.099 150.582 129.198C150.387 129.296 150.257 129.263 150.257 129.099C150.257 128.967 150.582 128.67 150.972 128.406Z" fill="#DF7AA0"/>
<path d="M154.32 129.428C154.775 129.395 155.132 129.198 155.132 129.033C155.132 128.835 155.197 128.703 155.295 128.703C155.392 128.703 155.425 129.066 155.392 129.527C155.327 129.956 155.425 130.285 155.62 130.219C155.815 130.186 156.042 129.758 156.172 129.329C156.302 128.802 156.378 128.725 156.4 129.099C156.432 129.494 156.79 129.758 157.407 129.857C157.927 129.956 158.382 130.186 158.415 130.384C158.415 130.549 158.252 130.648 158.09 130.549C157.83 130.417 157.83 130.549 158.057 131.01C158.274 131.45 158.274 131.615 158.057 131.505C157.862 131.406 157.732 131.538 157.732 131.736C157.7 131.966 157.472 132.296 157.212 132.494C156.79 132.79 156.822 132.922 157.407 133.549C157.765 133.977 158.057 134.373 158.057 134.471C158.057 134.57 157.407 134.636 156.595 134.636C155.782 134.636 155.132 134.471 155.132 134.307C155.132 134.109 155.23 133.977 155.36 133.977C155.522 133.977 155.652 133.647 155.717 133.219C155.75 132.823 155.815 132.131 155.815 131.67C155.815 131.208 155.555 130.714 155.23 130.516C154.905 130.351 154.385 130.219 154.092 130.186C153.767 130.186 153.507 130.022 153.507 129.857C153.507 129.659 153.865 129.494 154.32 129.428Z" fill="#DF7AA0"/>
<path d="M137.517 133.186C137.452 132.955 137.777 132.494 138.232 132.23C138.687 131.933 139.077 131.703 139.142 131.703C139.207 131.67 139.045 131.9 138.817 132.164C138.46 132.593 138.492 132.757 138.947 133.252C139.272 133.549 139.532 133.944 139.532 134.142C139.532 134.34 139.37 134.274 139.142 134.043C138.915 133.812 138.46 133.647 138.135 133.647C137.842 133.647 137.55 133.45 137.517 133.186Z" fill="#DF7AA0"/>
<path d="M134.17 136.021C134.462 135.889 134.69 135.23 134.722 134.438C134.787 133.68 134.95 133.153 135.112 133.285C135.242 133.384 135.275 133.746 135.177 134.043C135.047 134.438 135.145 134.636 135.47 134.636C135.73 134.636 135.99 134.438 135.99 134.208C136.022 134.01 136.022 133.614 135.99 133.384C135.99 133.186 136.12 133.087 136.315 133.186C136.477 133.285 136.575 133.647 136.477 134.01C136.347 134.428 136.445 134.636 136.77 134.636C137.03 134.636 137.257 134.438 137.257 134.208C137.257 133.911 137.322 133.911 137.517 134.208C137.647 134.406 138.362 134.636 139.077 134.702C139.825 134.768 140.572 134.933 140.702 135.065C140.865 135.197 140.605 135.296 139.207 135.296L139.37 139.844L138.395 139.745C137.875 139.679 137.062 139.482 136.607 139.317C136.022 139.053 135.957 138.954 136.38 138.954C136.802 138.921 136.932 138.625 136.932 137.438C136.932 136.021 136.9 135.955 135.957 135.955C135.34 135.955 134.755 136.251 134.332 136.68C133.78 137.339 133.715 137.372 133.682 136.845C133.682 136.548 133.91 136.185 134.17 136.021Z" fill="#DF7AA0"/>
<path d="M147.982 138.097C148.177 137.636 148.21 136.812 148.08 136.284C147.982 135.724 148.015 135.296 148.21 135.296C148.372 135.296 148.535 135.493 148.567 135.691C148.6 135.922 148.665 136.581 148.697 137.108C148.762 137.702 148.957 138.064 149.185 137.998C149.412 137.965 149.542 138.064 149.445 138.262C149.337 138.482 149.12 138.482 148.795 138.262C148.405 137.998 148.275 138.097 148.112 138.658C148.015 139.086 148.047 139.482 148.21 139.581C148.372 139.679 148.47 139.976 148.437 140.24C148.437 140.504 148.372 140.965 148.307 141.229C148.275 141.492 148.112 141.097 147.95 140.306C147.755 139.449 147.787 138.625 147.982 138.097Z" fill="#DF7AA0"/>
<path d="M141.645 139.416C142.035 139.548 142.132 139.251 142.197 138.163L142.23 136.779L142.36 138.163C142.425 139.152 142.62 139.581 142.945 139.581C143.302 139.581 143.432 139.218 143.432 138.262C143.432 137.306 143.562 136.944 143.92 136.944C144.31 136.944 144.342 137.141 144.115 137.834C143.952 138.361 143.92 139.449 144.245 141.888L142.457 141.855C141.482 141.855 140.865 141.789 141.092 141.69C141.287 141.624 141.482 141.361 141.482 141.13C141.45 140.932 141.222 140.536 140.897 140.306C140.41 139.943 140.41 139.943 140.995 140.141C141.515 140.372 141.58 140.306 141.385 139.811C141.222 139.416 141.287 139.284 141.645 139.416Z" fill="#DF7AA0"/>
<path d="M157.537 140.536C157.472 140.635 157.407 139.877 157.407 138.822C157.44 137.768 157.57 136.911 157.732 136.911C157.895 136.911 157.96 137.702 157.862 138.658C157.765 139.614 157.602 140.471 157.537 140.536Z" fill="#DF7AA0"/>
<path d="M133.39 138.724C133.552 138.822 133.715 138.757 133.715 138.559C133.715 138.394 133.877 138.262 134.105 138.262C134.332 138.295 134.82 138.427 135.177 138.592C135.73 138.888 135.697 138.888 134.917 138.822C134.332 138.757 134.105 138.888 134.202 139.152C134.311 139.416 134.148 139.493 133.715 139.383C133.357 139.317 133.065 139.086 133.065 138.888C133.065 138.724 133.195 138.658 133.39 138.724Z" fill="#DF7AA0"/>
<path d="M134.852 140.635C134.592 140.405 134.43 140.075 134.56 139.877C134.657 139.712 135.112 140.108 135.535 140.8C135.99 141.492 136.25 142.086 136.152 142.119C136.055 142.152 135.827 142.119 135.665 142.02C135.47 141.954 135.34 141.69 135.34 141.459C135.34 141.229 135.145 140.866 134.852 140.635Z" fill="#DF7AA0"/>
<path d="M155.002 143.997C155.262 143.932 155.49 143.569 155.49 143.173C155.49 142.811 155.62 142.514 155.75 142.514C155.912 142.514 156.042 142.811 156.075 143.173C156.107 143.569 155.977 143.833 155.815 143.833C155.62 143.833 155.555 144.195 155.652 144.591C155.815 145.184 155.782 145.25 155.49 144.822C155.197 144.459 155.132 144.624 155.295 145.58C155.457 146.569 155.392 146.799 155.002 146.634C154.677 146.536 154.515 146.074 154.515 145.316C154.515 144.591 154.677 144.129 155.002 143.997Z" fill="#DF7AA0"/>
<path d="M147.592 149.898C147.462 149.733 147.625 149.436 147.917 149.205C148.242 149.008 148.535 148.81 148.567 148.81C148.632 148.81 148.665 149.008 148.665 149.271C148.665 149.568 148.502 149.7 148.34 149.601C148.145 149.535 148.047 149.766 148.08 150.128C148.145 150.491 148.34 150.788 148.567 150.788C148.795 150.788 149.055 150.92 149.152 151.084C149.25 151.315 149.055 151.315 148.567 151.15C148.177 150.985 147.852 150.689 147.852 150.524C147.852 150.326 147.722 150.03 147.592 149.898Z" fill="#DF7AA0"/>
<path fill-rule="evenodd" clip-rule="evenodd" d="M157.927 123.759C157.992 123.759 158.577 124.286 159.195 124.912C159.812 125.539 160.267 126.198 160.17 126.396C160.072 126.594 159.845 126.725 159.682 126.725C159.487 126.725 159.292 126.363 159.195 125.901C159.087 125.352 158.762 125.022 158.22 124.912C157.667 124.814 157.472 124.583 157.602 124.253C157.7 123.99 157.862 123.759 157.927 123.759ZM152.922 124.781C153.085 124.748 153.247 124.88 153.345 125.077C153.442 125.275 152.922 125.737 152.207 126.165C151.492 126.561 150.907 127.088 150.907 127.319C150.907 127.516 151.102 127.714 151.297 127.714C151.525 127.714 151.232 128.143 150.68 128.637C150.095 129.132 149.737 129.659 149.867 129.824C149.997 129.989 149.9 130.022 149.672 129.923C149.477 129.791 149.055 129.923 148.795 130.186C148.535 130.45 148.307 130.747 148.307 130.846C148.307 130.945 148.567 130.945 148.86 130.846C149.185 130.747 149.802 130.977 151.07 131.999L150.322 132.164C149.932 132.263 149.607 132.593 149.607 132.922C149.607 133.351 149.38 133.45 148.535 133.351C147.787 133.252 147.56 133.318 147.722 133.581C147.885 133.812 147.787 133.977 147.495 133.977C147.235 133.977 147.072 134.109 147.17 134.307C147.267 134.504 147.17 134.636 147.007 134.636C146.812 134.636 146.227 134.406 145.707 134.142C145.187 133.878 144.732 133.516 144.732 133.318C144.732 133.12 144.505 132.757 144.245 132.494C143.985 132.23 143.822 131.867 143.92 131.67C144.017 131.472 144.31 131.34 144.57 131.34C144.862 131.34 144.992 131.538 144.895 131.835C144.797 132.098 144.862 132.263 145.057 132.164C145.22 132.065 145.512 132.296 145.707 132.659C145.87 133.021 146.292 133.285 146.585 133.219C146.91 133.186 147.202 132.856 147.202 132.494C147.235 132.131 147.56 131.175 147.95 130.351C148.307 129.527 148.892 128.406 149.185 127.846C149.51 127.286 150.225 126.462 150.745 126C151.265 125.539 151.947 125.077 152.207 124.978C152.467 124.88 152.792 124.781 152.922 124.781V124.781ZM155.977 126.429C157.245 126.396 157.602 126.495 157.602 126.89C157.57 127.286 157.342 127.352 156.595 127.187C156.075 127.055 155.327 126.857 154.97 126.692C154.515 126.528 154.807 126.429 155.977 126.429V126.429ZM152.89 127.055C153.052 127.055 153.247 127.187 153.345 127.385C153.442 127.582 153.865 127.714 154.32 127.714C154.775 127.714 155.36 127.78 155.62 127.879C155.88 127.978 156.107 128.341 156.107 128.703C156.107 129.066 155.945 129.362 155.782 129.362C155.587 129.362 155.457 129.165 155.457 128.967C155.457 128.637 155.392 128.637 155.197 128.901C155.067 129.132 154.612 129.362 154.19 129.395C153.767 129.461 153.377 129.758 153.345 130.022C153.312 130.285 153.182 130.846 153.052 131.274C152.955 131.67 152.695 131.999 152.532 131.999C152.337 131.999 152.272 131.241 152.37 130.088C152.435 129.066 152.532 127.945 152.532 127.615C152.565 127.319 152.727 127.055 152.89 127.055V127.055ZM138.72 128.11C139.435 128.077 140.28 128.11 140.572 128.209C140.897 128.308 141.157 128.505 141.157 128.703C141.157 128.901 140.735 128.967 140.182 128.868C139.662 128.769 139.142 128.802 139.077 128.934C139.012 129.099 137.745 129.165 136.315 129.099C134.722 129.066 133.682 129.165 133.682 129.362C133.682 129.56 133.455 129.923 133.162 130.186C132.902 130.45 132.09 130.681 131.375 130.681C130.335 130.681 130.107 130.78 130.107 131.34C130.107 131.703 129.88 131.999 129.62 131.999C129.36 131.999 129.132 131.802 129.132 131.571C129.132 131.373 129.295 130.977 129.522 130.747C129.75 130.549 130.107 130.351 130.367 130.351C130.627 130.351 131.115 129.989 131.44 129.527C131.96 128.835 132.35 128.703 133.747 128.67C134.69 128.637 135.892 128.538 136.445 128.406C136.965 128.308 137.972 128.176 138.72 128.11V128.11ZM160.235 128.439C160.3 128.505 160.397 129.395 160.43 130.45C160.462 131.538 160.397 132.461 160.235 132.527C160.105 132.593 159.942 131.736 159.877 130.648C159.812 129.527 159.845 128.571 159.942 128.505C160.04 128.439 160.17 128.406 160.235 128.472V128.439ZM136.867 130.384C138.525 130.318 138.85 130.417 138.72 130.813C138.622 131.076 138.752 131.373 138.947 131.472C139.175 131.538 138.915 131.505 138.395 131.406C137.875 131.307 137.322 131.043 137.192 130.846C137.019 130.604 136.932 130.626 136.932 130.912C136.932 131.109 136.672 131.373 136.347 131.439C136.055 131.505 135.6 131.406 135.372 131.208C135.145 130.977 134.95 130.747 134.917 130.648C134.885 130.549 135.762 130.45 136.867 130.384V130.384ZM139.76 132.131C139.987 132.23 140.312 132.296 140.507 132.296C140.67 132.296 140.605 132.626 140.345 133.054C140.085 133.45 139.922 133.845 140.02 133.944C140.117 134.043 140.02 134.208 139.792 134.307C139.5 134.471 139.37 134.142 139.37 133.252C139.37 132.362 139.5 131.999 139.76 132.131V132.131ZM157.635 132.296C157.862 132.296 158.057 132.659 158.057 133.12C158.057 133.581 157.96 133.944 157.797 133.944C157.667 133.944 157.375 133.647 157.147 133.285C156.952 132.922 156.855 132.56 156.985 132.461C157.082 132.362 157.375 132.296 157.635 132.296ZM133.39 132.626C133.552 132.626 133.682 132.922 133.682 133.285C133.682 133.647 133.812 133.944 134.007 133.944C134.17 133.944 134.397 134.34 134.462 134.867C134.56 135.427 134.43 135.856 134.137 136.021C133.877 136.153 133.682 136.779 133.682 137.57C133.682 138.592 133.585 138.855 133.195 138.724C132.935 138.625 132.707 138.328 132.707 138.064C132.707 137.801 132.545 137.57 132.382 137.57C132.187 137.57 132.057 137.438 132.057 137.24C132.057 137.043 132.382 136.812 132.772 136.713C133.26 136.614 133.39 136.416 133.195 136.251C133 136.087 132.935 135.197 132.967 134.307C133.032 133.384 133.227 132.626 133.39 132.626ZM160.365 134.274C160.527 134.274 160.657 134.9 160.657 135.691C160.657 136.449 160.527 137.306 160.332 137.57C160.17 137.834 159.975 137.998 159.91 137.9C159.845 137.801 159.877 136.944 159.942 135.988C160.007 135.065 160.202 134.274 160.365 134.274ZM143.205 134.603C143.335 134.603 143.465 135.131 143.53 135.79C143.562 136.449 143.465 137.075 143.302 137.174C143.14 137.306 143.075 137.9 143.14 138.46C143.205 139.053 143.107 139.548 142.945 139.548C142.75 139.548 142.522 138.658 142.36 137.57C142.197 136.153 142.262 135.46 142.522 135.098C142.75 134.834 143.042 134.636 143.205 134.603ZM156.692 134.603C157.472 134.636 157.505 134.669 157.017 135.032C156.692 135.263 156.432 135.658 156.432 135.922C156.4 136.185 156.627 136.647 156.92 136.911C157.212 137.174 157.44 137.9 157.407 138.493C157.407 139.317 157.277 139.548 156.757 139.548C156.4 139.548 156.14 139.745 156.205 139.976C156.27 140.174 156.562 140.372 156.887 140.372C157.18 140.372 157.537 140.536 157.667 140.767C157.819 141.031 158.057 141.064 158.382 140.866C158.642 140.668 159 140.536 159.195 140.536C159.357 140.569 159.26 140.767 158.935 141.031C158.642 141.295 158.382 141.558 158.415 141.624C158.415 141.657 158.122 142.448 157.732 143.338C157.375 144.261 156.757 145.646 156.367 146.47C155.977 147.294 155.36 148.414 154.97 148.975C154.612 149.535 154.125 149.931 153.897 149.865C153.702 149.832 153.507 149.898 153.507 150.095C153.507 150.293 153.637 150.425 153.832 150.425C153.995 150.425 153.832 151.117 153.442 152.007C153.052 152.864 152.532 153.787 152.305 154.051C151.915 154.479 151.752 154.446 151.135 153.82C150.745 153.392 150.192 153.095 149.932 153.095C149.672 153.095 149.087 152.798 147.82 151.842L149.12 151.974C149.835 152.04 150.615 151.941 150.81 151.777C151.102 151.513 151.427 151.546 151.882 151.809C152.402 152.172 152.597 152.172 152.922 151.809C153.215 151.513 153.215 151.414 152.922 151.414C152.695 151.414 152.532 150.952 152.532 150.326C152.532 149.766 152.695 149.041 152.857 148.777C153.117 148.348 153.182 148.381 153.182 148.843C153.182 149.173 153.312 149.436 153.507 149.436C153.67 149.436 153.832 149.238 153.865 149.008C153.897 148.81 153.897 148.151 153.865 147.623C153.865 147.096 153.93 146.832 153.995 147.03C154.092 147.261 154.45 147.59 154.807 147.788C155.425 148.118 155.457 148.019 155.295 146.305C155.165 144.953 155.262 144.36 155.62 143.997C155.88 143.734 156.107 143.206 156.107 142.844C156.107 142.382 156.27 142.218 156.66 142.349C157.147 142.481 157.115 142.415 156.595 142.02C156.237 141.723 155.847 141.525 155.685 141.525C155.555 141.525 155.392 141.196 155.295 140.8C155.23 140.372 155.327 139.943 155.555 139.811C155.782 139.679 155.782 139.548 155.62 139.548C155.425 139.548 155.262 138.921 155.23 138.13C155.197 137.372 155.295 136.251 155.49 135.691C155.75 134.801 155.977 134.603 156.692 134.603V134.603ZM130.432 138.262C130.692 138.526 131.277 139.152 131.732 139.679C132.187 140.207 132.675 140.866 132.837 141.163C133.011 141.514 132.957 141.767 132.675 141.921C132.382 142.053 132.025 141.822 131.7 141.262C131.407 140.767 130.855 140.075 130.465 139.712C130.075 139.35 129.815 138.789 129.847 138.427C129.912 137.9 130.01 137.9 130.432 138.262V138.262ZM141.157 141.855H142.685C143.822 141.855 144.115 141.954 143.757 142.185C143.497 142.349 143.4 142.514 143.595 142.514C143.757 142.514 143.887 142.976 143.822 143.503C143.757 144.327 143.855 144.459 144.31 144.261C144.635 144.162 144.992 143.899 145.122 143.701C145.252 143.503 145.48 143.47 145.61 143.602C145.74 143.767 145.87 144.69 145.87 145.646C145.87 147.03 145.74 147.459 145.317 147.524C145.025 147.59 144.7 147.36 144.602 146.964C144.44 146.338 144.375 146.338 143.855 146.832C143.302 147.36 143.237 147.36 142.685 146.766C142.392 146.437 142.035 146.206 141.872 146.272C141.742 146.338 141.58 146.766 141.482 147.261C141.385 147.722 141.45 148.184 141.645 148.25C141.807 148.316 141.742 148.414 141.482 148.414C141.222 148.447 140.54 148.151 140.02 147.821C139.37 147.426 139.175 147.129 139.435 146.997C139.662 146.898 139.792 146.667 139.695 146.47C139.597 146.272 139.63 146.173 139.76 146.173C139.922 146.206 140.215 146.206 140.41 146.173C140.637 146.173 140.8 145.81 140.735 145.349C140.702 144.887 140.832 144.624 141.06 144.69C141.287 144.756 141.547 144.69 141.645 144.492C141.742 144.294 141.645 144.162 141.482 144.162C141.287 144.162 141.157 143.635 141.157 143.009V141.855ZM134.82 143.47C135.177 143.47 135.665 143.701 135.86 143.997C136.12 144.294 136.152 144.558 135.957 144.657C135.762 144.756 135.307 144.525 134.885 144.162C134.202 143.503 134.202 143.503 134.82 143.47ZM146.422 153.062C146.65 153.062 147.007 153.194 147.235 153.326C147.462 153.458 147.527 153.754 147.397 153.985C147.267 154.216 146.91 154.315 146.585 154.216C146.292 154.117 146.032 153.82 146.032 153.556C146.032 153.293 146.227 153.062 146.422 153.062Z" fill="#E0789F"/>
<path d="M153.572 125.572C153.247 124.912 153.247 124.715 153.605 124.616H153.572C153.8 124.517 154.482 124.451 155.035 124.451C155.62 124.418 156.107 124.55 156.107 124.748C156.107 124.945 155.977 125.374 155.782 125.737C155.587 126.099 155.132 126.396 154.71 126.396C154.287 126.396 153.832 126.066 153.572 125.572Z" fill="#E07CA2"/>
<path d="M157.18 125.572C156.79 125.308 156.562 124.912 156.692 124.715C156.79 124.517 157.115 124.484 157.407 124.583C157.7 124.715 158.187 124.912 158.512 125.044C158.837 125.143 159.162 125.572 159.26 126C159.325 126.396 159.52 126.725 159.715 126.725C159.877 126.725 159.975 126.857 159.877 127.055C159.78 127.253 159.845 127.451 160.04 127.549C160.202 127.648 160.365 127.846 160.365 128.044C160.365 128.242 160.137 128.373 159.877 128.373C159.617 128.373 159.227 128.11 159.032 127.813C158.74 127.319 158.74 127.352 158.902 128.044C159 128.505 159.195 129.626 159.325 130.582C159.455 131.505 159.617 132.23 159.715 132.164C159.812 132.098 159.877 132.329 159.877 132.659C159.877 132.988 159.78 133.186 159.617 133.12C159.487 133.054 159.39 133.219 159.39 133.483C159.39 133.746 159.487 134.043 159.617 134.109C159.78 134.175 159.877 135.23 159.877 136.416C159.877 137.603 159.78 138.592 159.617 138.592C159.487 138.592 159.455 138.724 159.552 138.921C159.65 139.119 159.585 139.548 159.39 139.91C159.195 140.273 158.772 140.701 158.415 140.899C157.765 141.229 157.765 141.229 158.382 140.009C158.805 139.185 158.935 138.427 158.805 137.768C158.642 136.911 158.707 136.812 159.162 137.043C159.531 137.196 159.672 137.141 159.585 136.878C159.52 136.647 159.357 136.12 159.26 135.724C159.162 135.296 158.902 134.966 158.74 134.966C158.545 134.966 158.35 135.164 158.285 135.394C158.187 135.592 158.155 135.263 158.122 134.636C158.122 133.746 158.187 133.647 158.382 134.142C158.61 134.735 158.642 134.735 158.837 134.241C158.967 133.845 158.805 133.384 158.415 132.922C158.057 132.494 157.765 132.065 157.765 131.933C157.765 131.769 157.895 131.67 158.09 131.67C158.252 131.67 158.415 131.307 158.415 130.846C158.415 130.285 158.22 130.022 157.83 130.022C157.375 130.022 157.342 129.956 157.765 129.692C158.187 129.428 158.187 129.329 157.667 128.736C157.147 128.077 157.147 128.044 157.667 127.747C158.09 127.549 158.155 127.418 157.83 127.253C157.602 127.154 157.537 126.857 157.667 126.561C157.862 126.198 157.7 125.868 157.18 125.572Z" fill="#E07CA2"/>
<path d="M139.402 130.846C138.622 130.055 138.622 129.989 139.142 129.395C139.467 129.033 139.792 128.736 139.89 128.736C139.987 128.736 140.215 128.835 140.41 128.967C140.605 129.099 140.865 129.527 140.995 129.956C141.092 130.351 141.32 130.615 141.515 130.516C141.677 130.417 141.775 130.582 141.677 130.846C141.547 131.208 141.352 131.274 140.865 131.01C140.432 130.791 140.215 130.791 140.215 131.01C140.215 131.208 140.41 131.406 140.605 131.472C140.93 131.604 140.93 131.637 140.605 131.637C140.41 131.67 139.857 131.307 139.402 130.846Z" fill="#E07CA2"/>
<path d="M134.365 129.692C134.365 129.494 134.17 129.296 133.942 129.231C133.747 129.132 133.877 129.066 134.267 129.066C134.69 129.033 134.95 129.165 134.852 129.362C134.755 129.56 134.82 129.692 135.015 129.692C135.21 129.692 135.275 130.252 135.177 131.01C135.08 131.769 135.145 132.329 135.34 132.329C135.502 132.329 135.795 132.659 135.957 133.087C136.087 133.483 136.185 134.01 136.12 134.241C136.055 134.439 135.762 134.636 135.502 134.636C135.177 134.636 135.08 134.449 135.21 134.076C135.307 133.746 135.242 133.384 135.047 133.252C134.852 133.087 134.69 132.692 134.69 132.329C134.69 131.966 134.462 131.637 134.137 131.604C133.812 131.538 133.585 131.175 133.585 130.648C133.552 130.088 133.715 129.824 133.942 129.89C134.17 129.956 134.365 129.89 134.365 129.692Z" fill="#E07CA2"/>
<path d="M154.157 130.846C154.157 130.648 154.417 130.417 154.742 130.285C155.067 130.153 155.457 130.055 155.652 130.055C155.815 130.088 155.75 130.153 155.49 130.252C155.067 130.417 155.067 130.45 155.49 130.714C155.912 130.977 155.912 131.043 155.49 131.307C155.1 131.538 155.1 131.703 155.392 132.065C155.685 132.395 155.685 132.856 155.295 134.142C155.035 135.065 154.775 136.284 154.742 136.911C154.71 137.504 154.482 138.097 154.255 138.229C153.962 138.394 153.962 138.526 154.352 138.921C154.645 139.185 154.84 139.778 154.775 140.24C154.742 140.701 154.84 141.295 155.002 141.558C155.262 141.921 155.197 141.987 154.742 141.789C154.374 141.635 154.212 141.701 154.255 141.987C154.32 142.185 154.482 142.481 154.677 142.646C154.872 142.778 154.807 143.009 154.515 143.206C154.255 143.404 153.767 143.47 153.442 143.371C153.052 143.272 152.922 143.338 153.052 143.701C153.15 143.965 153.507 144.195 153.865 144.195C154.352 144.195 154.515 144.426 154.515 145.118C154.515 145.613 154.32 146.47 154.027 146.997C153.605 147.887 153.54 147.92 153.54 147.261C153.54 146.832 153.345 146.404 153.15 146.272C152.868 146.096 152.814 146.151 152.987 146.437C153.117 146.634 153.052 146.898 152.89 146.997C152.695 147.096 152.63 147.459 152.727 147.821C152.825 148.184 152.727 148.48 152.565 148.48C152.37 148.48 152.305 148.711 152.402 148.975C152.5 149.238 152.402 149.469 152.24 149.469C152.045 149.469 151.687 149.997 151.427 150.623C151.07 151.48 150.81 151.711 150.42 151.546C150.127 151.381 149.997 151.084 150.127 150.788C150.257 150.524 150.452 149.634 150.615 148.81C150.777 147.986 150.777 147.195 150.647 146.997C150.485 146.799 150.387 146.14 150.42 145.481C150.452 144.525 150.355 144.327 149.867 144.426C149.445 144.492 149.347 144.756 149.477 145.448C149.542 145.942 149.412 146.733 149.152 147.261C148.892 147.755 148.73 148.283 148.827 148.48C148.925 148.678 148.632 148.876 148.177 148.975C147.722 149.074 147.365 149.238 147.365 149.403C147.365 149.535 147.625 149.931 147.95 150.293C148.502 150.92 148.502 150.92 147.69 150.392C147.235 150.128 146.877 149.667 146.877 149.37C146.877 149.107 146.78 148.744 146.65 148.579C146.52 148.447 146.325 148.579 146.227 148.909C146.13 149.271 146.52 149.898 147.43 150.755C148.21 151.447 148.665 152.106 148.502 152.205C148.307 152.337 147.56 151.941 146.78 151.348C145.61 150.458 145.415 150.161 145.577 149.469C145.675 149.008 146 148.513 146.26 148.316C146.65 148.019 146.65 147.92 146.227 147.491C145.935 147.228 145.707 146.898 145.74 146.766C145.74 146.601 145.967 146.503 146.227 146.503C146.487 146.503 146.715 146.206 146.715 145.843C146.715 145.481 146.552 145.151 146.325 145.118C146.097 145.052 146.032 144.789 146.162 144.459C146.292 144.096 146.715 143.866 147.202 143.866C147.657 143.866 147.982 143.701 147.982 143.47C147.95 143.239 148.015 142.547 148.145 141.987C148.242 141.393 148.47 140.965 148.665 141.064C148.827 141.163 149.022 140.767 149.055 140.207C149.12 139.647 149.055 139.152 148.892 139.053C148.762 138.987 148.6 139.119 148.535 139.35C148.47 139.548 148.34 139.679 148.21 139.581C148.08 139.482 148.047 139.086 148.145 138.691C148.34 137.965 148.372 137.965 148.99 138.526C149.64 139.053 149.672 139.053 149.64 138.526C149.64 138.196 149.412 137.867 149.152 137.768C148.86 137.669 148.73 137.339 148.827 136.944C148.925 136.581 148.827 136.218 148.665 136.12C148.47 136.021 148.405 135.823 148.502 135.625C148.6 135.427 149.022 135.361 149.477 135.46C150.192 135.592 150.257 135.559 149.932 135.065C149.705 134.735 149.64 134.208 149.77 133.911C149.932 133.417 150.192 133.351 151.265 133.581C152.24 133.746 152.565 133.713 152.565 133.417C152.565 133.186 152.792 132.724 153.085 132.428C153.345 132.098 153.507 131.637 153.41 131.439C153.28 131.175 153.41 131.043 153.67 131.109C153.93 131.142 154.157 131.043 154.157 130.846Z" fill="#E07CA2"/>
<path d="M130.465 132.164C130.887 131.406 130.887 131.274 130.465 131.01C130.042 130.747 130.075 130.681 130.53 130.681C130.855 130.681 131.18 130.977 131.277 131.34C131.375 131.703 131.57 131.999 131.765 131.999C131.96 131.999 132.09 132.296 132.09 132.659C132.09 133.153 131.96 133.252 131.537 133.087C131.05 132.856 131.05 132.922 131.375 133.581C131.602 133.977 131.895 134.373 132.09 134.471C132.285 134.57 132.155 134.834 131.83 135.098C131.375 135.46 131.342 135.658 131.667 136.087C131.895 136.383 132.025 136.746 131.927 136.944C131.83 137.141 131.992 137.339 132.252 137.438C132.512 137.537 132.74 137.735 132.74 137.932C132.74 138.13 132.447 138.196 132.09 138.097C131.732 137.998 131.245 138.064 131.017 138.229C130.79 138.427 130.432 138.394 130.107 138.163C129.815 137.932 129.49 137.174 129.392 136.449C129.262 135.559 129.295 135.296 129.49 135.625C129.707 135.955 129.815 135.988 129.815 135.724C129.815 135.493 129.587 135.23 129.327 135.131C129.067 135.032 128.84 134.834 128.84 134.636C128.84 134.439 128.97 134.373 129.165 134.471C129.36 134.57 129.49 134.439 129.49 134.241C129.49 133.955 129.598 133.977 129.815 134.307C130.042 134.702 130.107 134.669 130.042 134.076C130.01 133.713 129.88 133.45 129.717 133.516C129.587 133.581 129.49 133.516 129.49 133.318C129.49 133.12 129.587 132.988 129.717 132.988C129.88 132.988 130.205 132.626 130.465 132.164Z" fill="#E07CA2"/>
<path d="M138.557 134.735C137.972 134.669 137.615 134.439 137.615 134.142C137.615 133.878 137.907 133.647 138.265 133.647C138.622 133.647 139.045 133.911 139.207 134.241C139.435 134.702 139.337 134.801 138.557 134.735Z" fill="#E07CA2"/>
<path d="M144.667 135.889C144.537 135.296 144.44 134.603 144.472 134.373C144.505 134.109 144.667 133.977 144.895 134.076C145.09 134.142 145.252 134.801 145.252 135.559C145.252 136.317 145.187 136.944 145.09 136.944C144.992 136.944 144.83 136.482 144.667 135.889Z" fill="#E07CA2"/>
<path d="M140.54 135.988C140.117 135.658 140.117 135.592 140.54 135.296C140.8 135.131 141.157 134.966 141.287 134.966C141.417 134.966 141.482 136.087 141.45 137.438C141.385 139.383 141.255 139.91 140.865 139.91C140.475 139.943 140.475 140.009 140.93 140.339C141.255 140.569 141.482 140.965 141.482 141.229C141.504 141.558 141.428 141.602 141.255 141.361C141.125 141.163 140.67 140.998 140.215 141.031C139.63 141.064 139.305 141.328 138.98 142.152C138.655 143.009 138.655 143.338 138.98 143.965C139.207 144.36 139.565 144.92 139.76 145.184C140.02 145.547 139.987 145.909 139.695 146.503C139.435 146.964 139.24 147.129 139.24 146.931C139.24 146.7 139.11 146.569 138.915 146.667C138.72 146.766 138.59 146.7 138.59 146.503C138.59 146.305 138.362 145.942 138.102 145.679C137.842 145.415 137.387 145.184 137.127 145.184C136.835 145.184 136.705 144.986 136.802 144.69C136.9 144.393 136.737 144.129 136.38 144.063C135.99 143.965 136.055 143.932 136.542 143.899C136.965 143.899 137.355 143.635 137.452 143.371C137.55 143.108 137.81 142.877 138.005 142.877C138.297 142.877 138.395 142.481 138.33 141.723C138.297 141.097 138.167 140.569 138.005 140.569C137.875 140.569 137.777 140.372 137.745 140.174C137.745 139.943 138.07 139.745 138.492 139.745C138.882 139.745 139.24 139.943 139.24 140.174C139.24 140.372 139.37 140.569 139.565 140.569C139.76 140.569 139.792 140.141 139.63 139.416C139.435 138.427 139.5 138.262 139.955 138.262C140.377 138.262 140.507 138.031 140.442 137.438C140.41 137.01 140.507 136.548 140.702 136.482C140.897 136.383 140.8 136.185 140.54 135.988Z" fill="#E07CA2"/>
<path d="M135.08 136.944C134.592 136.944 134.43 136.812 134.56 136.449C134.657 136.153 135.177 135.955 135.86 135.955C136.965 135.955 136.965 135.955 136.965 137.438C136.965 138.394 136.835 138.921 136.542 138.921C136.347 138.921 135.827 138.855 135.405 138.757C135.015 138.658 134.69 138.394 134.69 138.196C134.722 137.965 134.95 137.603 135.275 137.372C135.762 137.01 135.762 136.977 135.08 136.944Z" fill="#E07CA2"/>
<path d="M134.43 141.888C133.682 141.888 133.552 141.756 133.52 140.899C133.487 140.339 133.65 139.91 133.845 139.91C134.04 139.91 134.462 140.174 134.787 140.504C135.112 140.8 135.372 141.262 135.34 141.492C135.34 141.69 134.95 141.888 134.43 141.888Z" fill="#E07CA2"/>
<path d="M141.515 148.151C141.125 148.184 141.157 148.052 141.645 147.491C141.97 147.129 142.36 146.832 142.49 146.832C142.62 146.832 142.685 146.964 142.62 147.162C142.555 147.36 142.652 147.887 142.815 148.414C143.01 148.909 143.107 149.337 143.075 149.403C143.01 149.436 142.587 149.304 142.067 149.074C141.45 148.777 141.32 148.579 141.58 148.414C141.905 148.217 141.872 148.151 141.515 148.151Z" fill="#E07CA2"/>
<path fill-rule="evenodd" clip-rule="evenodd" d="M94.3575 55.1977C94.455 55.1977 94.91 55.5603 95.43 56.0218C95.9175 56.4832 96.3075 57.0766 96.3075 57.3403C96.3075 57.604 96.405 57.8347 96.5675 57.8347C96.6975 57.8017 97.64 59.285 98.68 61.1309C99.6875 62.9438 100.533 64.5919 100.533 64.7567C100.533 64.9215 101.02 65.6467 101.637 66.3389C102.222 66.9981 102.742 67.8222 102.775 68.1518C102.775 68.4485 102.84 68.9429 102.872 69.2066C102.937 69.4703 103.165 69.701 103.36 69.701C103.587 69.701 104.303 70.2284 104.92 70.8547C105.733 71.6787 106.48 72.0743 107.52 72.2721C108.333 72.4039 109.08 72.4039 109.242 72.2721C109.372 72.1402 110.51 72.1402 111.745 72.305C113.012 72.4698 114.8 72.4698 115.807 72.305C116.782 72.1402 118.342 72.1072 119.22 72.1732C120.13 72.2721 121.82 72.4039 123.055 72.5028C124.777 72.6346 125.33 72.5687 125.622 72.1732C125.85 71.8765 126.24 71.6458 126.435 71.6787C126.662 71.6787 126.857 71.481 126.857 71.2832C126.825 71.0525 127.345 70.4921 127.995 70.0306C128.612 69.5692 129.132 69.0088 129.132 68.7781C129.132 68.5803 129.425 68.0859 129.782 67.7233C130.205 67.2948 130.432 67.2289 130.465 67.4596C130.497 67.6903 130.497 68.0859 130.465 68.2836C130.465 68.5144 130.172 68.9759 129.847 69.3384C129.555 69.6681 128.937 70.3932 128.482 70.9865C128.027 71.5469 127.54 72.0084 127.345 72.0084C127.15 71.9754 126.63 72.2721 126.11 72.6676C125.622 73.0302 124.94 73.2609 124.582 73.162C124.225 73.0631 123.997 73.1291 124.095 73.3268C124.192 73.5246 123.51 73.6565 122.372 73.6894C121.365 73.6894 120.162 73.7224 119.707 73.7224C119.252 73.7553 117.075 73.7224 114.832 73.7224C112.59 73.6894 110.217 73.7224 109.535 73.7553C108.82 73.7883 108.235 73.7553 108.17 73.6565C108.105 73.5576 107.39 73.5246 106.577 73.5576C105.245 73.6565 104.952 73.5246 103.847 72.4039C103.165 71.7447 102.385 70.624 102.06 69.9318C101.767 69.2725 100.955 68.1518 100.272 67.4266C99.6225 66.7344 98.55 65.1193 97.9325 63.8338C97.315 62.5812 96.73 61.5924 96.6325 61.6583C96.535 61.6912 96.1775 61.1968 95.8525 60.5376C95.495 59.8783 95.235 59.1532 95.2675 58.9884C95.3325 58.8235 95.105 58.395 94.78 58.0654C94.2275 57.538 94.1625 57.538 93.61 58.0654C93.285 58.395 93.0575 58.8235 93.0575 58.9884C93.09 59.1532 92.8625 59.5487 92.57 59.8124C92.2775 60.0761 92.1475 60.5705 92.245 60.8672C92.3425 61.1968 92.2775 61.4605 92.0825 61.4605C91.8875 61.4605 91.8225 61.7572 91.92 62.1197C92.0175 62.4823 91.985 62.779 91.8225 62.779C91.6925 62.779 91.5625 63.4053 91.53 64.1634C91.53 64.9545 91.4325 66.1741 91.3675 66.8992C91.27 67.8881 91.075 68.3166 90.5225 68.5473C89.97 68.7781 89.775 69.1407 89.8075 69.8658C89.84 70.4262 89.8725 71.0525 89.84 71.2502C89.8075 71.5139 89.645 71.5799 89.4175 71.415C89.125 71.2502 89.125 71.415 89.32 72.0084C89.4825 72.5028 89.4825 72.7665 89.2875 72.6346C89.125 72.5028 89.06 72.7994 89.125 73.2939C89.255 73.8872 89.1575 74.085 88.8975 73.8872C88.67 73.7553 88.54 73.8213 88.5725 74.052C88.605 74.2827 88.54 74.8101 88.41 75.2057C88.28 75.6342 88.0525 75.8979 87.8575 75.799C87.6625 75.7001 87.565 75.832 87.5975 76.0297C87.63 76.2605 87.565 77.0186 87.435 77.6778C87.305 78.37 87.0775 78.9304 86.8825 78.9304C86.6875 78.9304 86.59 79.0952 86.6225 79.3259C86.6875 79.5237 86.4275 79.8533 86.0375 80.0511C85.68 80.2489 85.42 80.6114 85.485 80.8092C85.55 81.04 85.4525 81.2377 85.2575 81.2377C85.0625 81.2377 84.9325 81.831 84.9325 82.5562C84.9325 83.2814 84.835 83.9406 84.6725 84.0065C84.5425 84.0725 84.3475 84.6987 84.25 85.3909C84.12 86.1161 83.795 87.2698 83.47 87.9949C83.015 89.0827 82.9175 90.3023 82.95 95.0818C82.9825 98.2461 83.08 102.268 83.1775 103.982C83.275 105.696 83.5025 107.311 83.665 107.508C83.86 107.805 83.8275 108.003 83.5675 108.102C83.34 108.168 83.4375 108.201 83.795 108.168C84.2175 108.135 84.64 108.497 85.16 109.486C85.5825 110.277 86.33 111.134 86.8825 111.398C87.435 111.662 87.8575 112.123 87.8575 112.387C87.8575 112.651 87.9875 112.881 88.1825 112.881C88.3775 112.881 88.5075 113.112 88.5075 113.376C88.5075 113.639 88.6375 113.804 88.8325 113.705C89.0275 113.606 89.32 113.936 89.5475 114.43C89.7425 114.958 89.8725 115.584 89.84 115.848C89.8075 116.112 90.0025 116.54 90.2625 116.738C90.555 117.002 90.685 117.331 90.555 117.562C90.3817 117.848 90.4358 117.902 90.7175 117.727C90.945 117.595 91.1725 117.694 91.27 117.99C91.3675 118.254 91.66 118.485 91.92 118.485C92.18 118.485 92.4075 118.716 92.4075 118.979C92.4075 119.243 92.5375 119.408 92.7325 119.309C92.9275 119.21 93.1225 119.243 93.1875 119.375C93.2525 119.54 93.805 119.606 94.4225 119.573C95.2675 119.507 95.755 119.77 96.795 120.792C98.095 122.078 98.1275 122.111 100.63 122.111C101.995 122.111 103.197 122.21 103.262 122.341C103.36 122.506 103.977 122.539 104.66 122.44C105.342 122.341 108.69 122.275 112.07 122.308C116.165 122.374 119.285 122.242 121.332 121.913C123.022 121.649 124.517 121.353 124.68 121.287C124.81 121.188 124.907 121.32 124.907 121.517C124.907 121.748 125.07 121.649 125.297 121.32C125.525 120.99 125.915 120.792 126.11 120.891C126.337 121.023 126.532 120.99 126.532 120.792C126.532 120.594 126.922 120.496 127.41 120.528C127.93 120.561 129.425 120.067 130.757 119.408C132.09 118.716 133.487 118.122 133.845 118.056C134.202 118.023 134.82 117.793 135.21 117.562C135.632 117.331 136.25 117.166 136.607 117.166C136.965 117.166 137.29 117.067 137.322 116.903C137.387 116.771 137.94 116.441 138.557 116.145C139.175 115.848 140.15 115.419 140.67 115.156C141.19 114.892 142.49 114.068 143.497 113.277C144.537 112.519 145.382 111.761 145.382 111.563C145.382 111.365 145.577 111.233 145.772 111.233C146 111.233 146.422 110.871 146.682 110.409C146.942 109.948 147.267 109.585 147.397 109.585C147.56 109.585 147.592 109.453 147.495 109.255C147.397 109.058 147.56 108.926 147.82 108.926C148.145 108.926 148.242 109.124 148.112 109.486C148.015 109.816 147.625 110.574 147.235 111.167C146.845 111.728 146.292 112.288 146.032 112.387C145.772 112.453 144.96 113.046 144.245 113.705C143.53 114.332 142.815 114.859 142.62 114.859C142.425 114.859 141.97 115.288 141.547 115.782C141.092 116.309 140.898 116.87 141.028 117.166C141.158 117.43 141.32 118.188 141.417 118.814C141.547 119.638 141.872 120.1 142.522 120.463C143.01 120.726 143.432 121.188 143.432 121.451C143.432 121.715 143.53 121.847 143.66 121.715C143.79 121.583 144.375 121.847 144.895 122.275C145.415 122.737 145.967 123.001 146.097 122.836C146.227 122.704 146.422 122.869 146.52 123.165C146.617 123.495 146.91 123.759 147.17 123.759C147.43 123.759 147.917 124.022 148.21 124.352C148.535 124.649 149.022 124.912 149.282 124.912C149.542 124.912 150.127 124.682 150.582 124.385C151.037 124.088 152.5 123.594 153.832 123.264C156.14 122.737 156.335 122.737 157.57 123.297C158.285 123.594 159.195 124.253 159.585 124.715C160.007 125.176 160.332 125.671 160.332 125.802C160.332 125.967 159.78 125.506 159.13 124.814C158.447 124.121 157.895 123.759 157.83 123.989C157.765 124.286 157.115 124.418 156.01 124.418C155.1 124.418 153.735 124.583 153.02 124.781C152.305 124.978 151.265 125.539 150.745 126C150.225 126.462 149.51 127.286 149.185 127.846C148.892 128.406 148.307 129.527 147.95 130.351C147.56 131.175 147.235 132.131 147.203 132.494C147.203 132.856 146.91 133.186 146.585 133.219C146.217 133.285 145.816 132.878 145.382 131.999C145.025 131.274 144.635 130.681 144.472 130.681C144.342 130.681 143.79 130.285 143.27 129.824C142.75 129.362 141.775 128.769 141.157 128.472C140.312 128.143 139.37 128.044 137.582 128.209C136.25 128.308 134.495 128.472 133.682 128.604C132.87 128.703 131.83 129.066 131.31 129.395C130.822 129.758 130.335 130.022 130.172 130.022C130.042 130.022 129.75 130.351 129.522 130.747C129.295 131.175 129.1 132.461 129.067 133.647C129.067 134.834 129.23 136.515 129.457 137.438C129.717 138.427 130.302 139.581 130.952 140.306C131.57 140.998 132.057 141.657 132.057 141.789C132.057 141.954 132.447 142.316 132.935 142.613C133.455 142.943 134.332 143.635 134.885 144.195C135.47 144.723 136.087 145.118 136.282 145.019C136.477 144.92 136.607 144.986 136.607 145.184C136.607 145.382 137.68 146.239 138.947 147.129C140.247 147.986 142.295 149.172 143.497 149.766C144.732 150.326 145.707 150.985 145.707 151.183C145.707 151.414 145.772 151.513 145.87 151.348C145.967 151.216 146.812 151.546 147.722 152.106C148.665 152.633 149.672 153.095 149.932 153.095C150.192 153.095 150.745 153.425 151.135 153.853C151.752 154.479 151.915 154.512 152.305 154.084C152.565 153.82 152.987 153.062 153.28 152.436C153.572 151.809 153.93 151.051 154.092 150.788C154.255 150.524 154.58 149.931 154.807 149.469C155.067 149.008 155.75 147.689 156.335 146.503C156.952 145.316 157.407 144.228 157.407 144.03C157.407 143.833 157.83 143.009 158.382 142.119C158.902 141.262 159.292 140.569 159.195 140.569C159.097 140.569 159.39 139.712 159.845 138.658C160.657 136.845 160.69 136.581 160.495 132.329C160.397 129.89 160.17 127.747 160.007 127.549C159.845 127.352 159.845 127.022 160.007 126.725C160.235 126.297 160.332 126.297 160.787 126.725C161.145 127.055 161.405 128.11 161.535 129.857C161.665 131.307 161.762 133.68 161.73 135.131C161.697 136.581 161.6 138.262 161.503 138.822C161.405 139.416 160.982 140.207 160.56 140.602C160.17 140.965 159.812 141.591 159.78 141.987C159.747 142.382 158.415 145.382 156.79 148.645C155.133 151.908 153.442 154.908 153.02 155.336C152.5 155.798 152.012 155.996 151.622 155.831C151.33 155.732 150.81 155.402 150.453 155.106C150.128 154.809 149.315 154.479 148.665 154.38C148.015 154.282 147.527 154.051 147.56 153.82C147.625 153.589 146.975 153.161 146.097 152.864C145.252 152.568 144.31 152.04 143.985 151.711C143.692 151.381 143.205 151.183 142.945 151.282C142.685 151.381 142.392 151.216 142.295 150.952C142.197 150.689 142.002 150.524 141.807 150.623C141.612 150.722 141.092 150.524 140.572 150.227C140.085 149.898 137.94 148.315 135.827 146.667C133.715 145.052 131.732 143.371 131.44 142.976C130.952 142.283 130.887 142.25 130.367 142.811C130.042 143.107 129.782 143.503 129.782 143.701C129.782 143.899 129.36 144.393 128.872 144.821C128.287 145.349 127.475 145.678 126.532 145.777C125.72 145.843 124.55 145.876 123.932 145.876C123.315 145.843 122.437 145.547 121.982 145.184C121.527 144.821 120.682 144.294 120.097 144.03C119.545 143.767 119.057 143.404 119.057 143.206C119.057 143.009 118.31 142.316 117.4 141.624C116.49 140.965 115.547 139.943 115.287 139.416C115.027 138.888 114.377 138.163 113.792 137.801C112.785 137.24 112.752 137.174 113.272 136.647C113.76 136.218 113.987 136.185 114.67 136.515C115.125 136.746 115.677 137.339 115.905 137.834C116.132 138.361 116.49 138.789 116.717 138.822C116.912 138.888 117.237 138.921 117.432 138.921C117.627 138.921 117.757 139.152 117.757 139.416C117.757 139.679 117.887 139.844 118.082 139.745C118.277 139.646 118.7 140.075 119.025 140.635C119.382 141.229 120.032 141.987 120.487 142.283C120.942 142.613 121.267 142.745 121.17 142.547C121.072 142.349 121.56 142.58 122.21 143.009C122.957 143.47 124.225 143.899 125.395 144.03C126.987 144.228 127.442 144.162 127.897 143.734C128.32 143.371 128.482 142.712 128.482 141.393C128.482 140.405 128.255 139.053 127.995 138.427C127.735 137.801 127.215 137.207 126.857 137.108C126.467 137.009 126.207 136.68 126.207 136.284C126.207 135.922 126.077 135.625 125.882 135.625C125.687 135.625 125.362 135.23 125.135 134.768C124.94 134.307 124.42 133.878 123.997 133.779C123.607 133.713 123.282 133.516 123.282 133.318C123.282 133.12 123.51 132.988 123.77 132.988C124.03 132.988 124.257 132.691 124.257 132.329C124.257 131.966 124.322 131.67 124.42 131.67C124.517 131.67 125.07 132.065 125.622 132.56C126.207 133.021 126.63 133.581 126.597 133.779C126.532 133.977 126.597 134.043 126.76 133.911C126.89 133.746 127.15 133.779 127.345 133.977C127.572 134.175 127.767 133.647 127.897 132.461C128.092 131.109 128.385 130.483 129.035 129.857C129.555 129.428 130.302 128.868 130.757 128.67C131.212 128.472 131.927 128.11 132.382 127.879C132.837 127.648 133.975 127.286 134.885 127.088C135.827 126.89 137.583 126.725 138.753 126.725C140.215 126.725 141.028 126.561 141.353 126.231C141.743 125.802 141.742 125.671 141.32 125.242C140.995 124.912 140.833 124.187 140.865 123.165C140.898 122.275 140.703 121.188 140.378 120.627C140.085 120.067 139.792 119.21 139.695 118.65C139.565 118.023 139.272 117.595 138.785 117.43C138.297 117.265 137.355 117.529 135.795 118.32C134.527 118.913 132.935 119.671 132.22 119.968C131.505 120.298 130.627 120.594 130.27 120.66C129.912 120.759 129.425 120.825 129.197 120.891C129.002 120.924 128.807 121.056 128.807 121.188C128.807 121.353 128.125 121.55 127.247 121.649C126.402 121.781 125.232 122.078 124.647 122.308C124.095 122.572 123.607 122.671 123.607 122.506C123.64 122.374 123.445 122.473 123.217 122.704C122.957 122.935 122.177 123.1 121.332 123.034C120.52 123.001 119.642 123.1 119.382 123.231C119.122 123.396 114.735 123.561 109.632 123.627C103.425 123.693 99.7525 123.594 98.485 123.33C96.6975 122.968 96.535 122.968 96.145 123.594C95.755 124.154 95.7875 124.451 96.21 125.572C96.47 126.297 96.7625 127.187 96.795 127.549C96.86 127.912 96.925 128.209 96.9575 128.209C96.99 128.209 97.055 129.626 97.12 131.34C97.185 133.054 97.315 135.724 97.4125 137.273C97.51 138.822 97.6725 140.536 97.7375 141.064C97.8025 141.591 97.965 142.778 98.095 143.701C98.1925 144.591 98.355 145.415 98.42 145.514C98.5175 145.613 98.3875 145.876 98.16 146.14C97.8675 146.536 97.8675 146.568 98.16 146.404C98.3875 146.272 98.6475 146.371 98.7125 146.568C98.81 146.799 98.9725 149.667 99.07 152.93C99.1675 156.193 99.33 159.325 99.395 159.852C99.46 160.38 99.6225 161.731 99.7525 162.819C99.8825 163.906 99.98 165.291 100.012 165.851C100.045 166.445 100.11 166.939 100.208 166.939C100.305 166.939 100.37 167.269 100.37 167.697C100.403 168.093 100.533 169.84 100.695 171.554C100.858 173.268 101.02 174.817 101.052 175.015C101.052 175.212 101.182 175.938 101.312 176.663C101.442 177.388 101.833 178.937 102.158 180.124C102.548 181.475 103.132 182.596 103.685 183.123C104.237 183.651 105.115 184.079 105.895 184.178C106.61 184.277 107.877 184.178 108.755 183.98C109.73 183.717 110.282 183.387 110.282 183.09C110.282 182.827 110.51 182.365 110.737 182.102C110.965 181.838 111.322 180.948 111.517 180.124C111.712 179.201 111.745 177.882 111.582 176.663C111.42 175.575 111.355 174.586 111.452 174.421C111.517 174.29 111.777 174.29 111.972 174.421C112.2 174.52 112.297 174.487 112.135 174.322C112.005 174.158 112.135 173.696 112.395 173.268C112.72 172.784 112.742 172.608 112.46 172.74C112.265 172.839 112.59 172.477 113.207 171.916C113.825 171.356 114.442 170.894 114.572 170.894C114.735 170.894 114.767 171.026 114.67 171.224C114.572 171.422 114.735 171.488 114.995 171.389C115.255 171.29 115.482 171.092 115.482 170.894C115.482 170.697 115.905 170.565 116.457 170.565C116.977 170.565 117.497 170.433 117.595 170.235C117.692 170.037 118.017 169.939 118.31 169.972C118.635 170.004 119.48 169.84 120.195 169.576C120.91 169.312 121.69 169.147 121.885 169.18C122.112 169.213 122.307 169.114 122.307 168.917C122.307 168.719 122.437 168.653 122.632 168.752C122.827 168.851 123.087 168.686 123.282 168.422C123.51 168.06 123.77 167.994 124.257 168.257C124.691 168.477 124.853 168.477 124.745 168.257C124.647 168.06 124.777 167.928 124.972 167.928C125.2 167.928 126.045 167.631 126.857 167.236C127.67 166.84 128.677 166.247 129.132 165.95C129.587 165.621 130.237 165.291 130.595 165.258C130.952 165.192 131.342 164.994 131.472 164.796C131.602 164.599 132.35 164.302 133.097 164.071C133.877 163.841 134.527 163.709 134.56 163.742C134.625 163.775 134.722 164.137 134.82 164.533C134.917 165.027 134.82 165.291 134.56 165.291C134.267 165.291 134.267 165.357 134.56 165.555C134.82 165.719 134.917 167.203 134.917 170.4C134.917 172.938 135.047 175.608 135.21 176.333C135.405 177.058 135.73 178.047 135.99 178.542C136.25 179.036 136.737 179.531 137.095 179.629C137.452 179.695 138.102 179.662 138.525 179.531C139.175 179.366 139.305 179.399 139.175 179.794C139.045 180.157 138.46 180.289 136.997 180.289C135.307 180.289 134.982 180.19 134.982 179.728C134.982 179.366 134.657 179.069 134.17 178.97C133.682 178.871 133.292 178.509 133.162 178.08C133.065 177.652 133 176.959 133.032 176.498C133.097 176.037 133 175.41 132.837 175.081C132.642 174.652 132.675 174.388 133.032 174.158C133.357 173.96 133.379 173.861 133.097 173.861C132.805 173.861 132.805 173.696 133.13 173.103C133.455 172.608 133.487 172.081 133.292 171.389C133.13 170.861 132.967 169.51 132.935 168.455C132.87 166.642 132.805 166.51 132.057 166.412C131.602 166.346 131.017 166.51 130.757 166.774C130.497 167.038 129.75 167.302 129.067 167.335C128.417 167.4 127.897 167.565 127.93 167.763C127.962 167.928 127.41 168.225 126.695 168.422C125.98 168.62 125.167 168.884 124.907 169.016C124.647 169.114 123.64 169.444 122.697 169.708C121.787 170.004 120.877 170.169 120.682 170.07C120.487 169.972 120.357 170.037 120.357 170.235C120.357 170.433 119.22 170.829 117.855 171.158C116.035 171.554 115.092 171.982 114.442 172.641C113.76 173.301 113.532 173.861 113.5 174.949C113.467 175.707 113.467 177.355 113.467 178.641C113.5 180.486 113.37 181.212 112.785 182.167C112.395 182.86 111.745 183.486 111.322 183.585C110.932 183.684 110.607 183.98 110.607 184.244C110.607 184.508 110.575 184.739 110.51 184.771C110.477 184.771 109.21 184.837 107.683 184.936C105.668 185.068 104.822 185.002 104.497 184.673C104.27 184.442 104.01 184.343 103.88 184.508C103.782 184.64 103.88 184.739 104.108 184.739C104.335 184.739 104.465 184.804 104.4 184.903C104.335 185.002 103.652 184.87 102.872 184.574C102.125 184.31 101.508 183.947 101.508 183.75C101.508 183.552 101.15 182.959 100.695 182.431C100.208 181.871 100.045 181.442 100.272 181.442C100.554 181.442 100.576 181.354 100.337 181.179C100.142 181.047 99.7525 180.157 99.46 179.234C99.135 178.179 98.9075 176.465 98.94 174.949C98.94 173.531 98.7775 171.653 98.5825 170.73C98.3875 169.84 98.16 168.356 98.0625 167.433C97.9975 166.543 97.9 165.258 97.835 164.632C97.77 164.005 97.64 163.181 97.51 162.819C97.3475 162.324 97.0225 162.16 96.08 162.192C95.3975 162.192 94.715 162.291 94.52 162.39C94.325 162.522 92.4075 162.456 90.1975 162.291C88.02 162.127 85.9725 161.863 85.6475 161.665C85.355 161.5 85.225 161.368 85.42 161.335C85.615 161.335 85.42 161.105 84.9975 160.841C84.6075 160.577 84.3475 160.248 84.4125 160.116C84.4775 159.951 84.12 159.885 83.6 159.951C82.9825 159.984 82.56 159.819 82.3325 159.457C82.17 159.127 82.1375 158.764 82.2675 158.6C82.3975 158.468 82.1375 158.468 81.6825 158.6C81.0975 158.764 80.935 158.731 81.0975 158.435C81.26 158.204 81.0975 157.907 80.7075 157.71C80.35 157.512 79.5375 156.523 78.8875 155.501C78.2375 154.446 77.295 153.128 76.7425 152.601C76.2225 152.073 75.8 151.414 75.8325 151.216C75.8325 150.985 75.67 150.854 75.5075 150.952C75.3125 151.051 75.1825 150.985 75.1825 150.788C75.1825 150.59 74.89 150.392 74.5325 150.293C74.0775 150.161 73.915 149.931 74.045 149.469C74.1425 149.107 74.11 148.81 73.9475 148.81C73.8175 148.843 73.07 148.282 72.29 147.59C71.51 146.898 70.6325 145.876 70.3725 145.349C70.08 144.821 69.7875 143.997 69.755 143.536C69.69 143.074 69.495 142.514 69.3325 142.316C69.1375 142.086 69.0725 141.756 69.17 141.558C69.2675 141.36 69.17 141.163 69.0075 141.064C68.8125 140.965 68.78 140.372 68.91 139.515C69.0725 138.691 69.56 137.735 70.1125 137.141C70.99 136.185 71.185 136.12 73.3625 136.152C75.0525 136.152 75.995 136.35 76.97 136.845C77.685 137.24 78.8875 138.196 79.635 138.987C80.3825 139.778 81.13 140.8 81.325 141.328C81.52 141.822 81.9425 142.283 82.235 142.382C82.5925 142.481 83.145 143.503 83.6975 145.019C84.2175 146.371 84.5425 147.623 84.445 147.821C84.3475 148.019 84.4125 148.151 84.6075 148.151C84.8025 148.151 84.9325 148.48 84.9325 148.909C84.9325 149.304 85.0625 149.502 85.1925 149.304C85.3225 149.107 85.745 148.942 86.135 148.909C86.655 148.843 87.0125 149.074 87.2725 149.634C87.5 150.095 87.9875 150.557 88.345 150.689C88.7025 150.788 89.0925 151.051 89.2225 151.249C89.3525 151.447 89.8725 151.645 90.36 151.711C90.88 151.776 91.595 152.04 91.985 152.304C92.4075 152.568 92.83 152.699 92.96 152.601C93.1225 152.535 93.5125 152.633 93.87 152.831C94.2275 153.029 95.0725 153.194 97.055 153.26L96.8275 150.062C96.6975 147.623 96.73 146.766 97.0225 146.601C97.3475 146.47 97.315 146.305 96.925 146.041C96.665 145.843 96.275 145.085 96.08 144.36C95.9175 143.635 95.7225 141.624 95.7225 139.91C95.69 138.196 95.495 136.647 95.3325 136.449C95.1375 136.251 95.0075 135.856 95.0075 135.559C95.0075 135.23 95.2025 134.603 95.3975 134.142C95.625 133.713 95.9175 133.417 96.0475 133.483C96.21 133.581 96.3075 133.516 96.3075 133.318C96.3075 133.12 96.21 132.988 96.0475 132.988C95.9175 133.021 95.625 132.56 95.3975 131.999C95.0725 131.208 95.0725 130.912 95.3975 130.516C95.7225 130.087 95.7225 129.989 95.3975 130.022C95.2025 130.022 94.9425 129.626 94.8775 129.132C94.8125 128.604 94.585 127.319 94.39 126.231C94.195 125.143 94 123.627 93.9675 122.869C93.87 121.649 93.74 121.418 92.96 121.122C92.4725 120.957 92.0825 120.693 92.0825 120.561C92.0825 120.397 91.4975 120.001 90.7825 119.638C90.0675 119.276 89.4825 118.847 89.4825 118.65C89.4825 118.452 89.4175 118.419 89.32 118.584C89.2225 118.716 88.8 118.485 88.345 118.089C87.9225 117.661 87.63 117.232 87.695 117.1C87.7925 116.936 87.3375 116.177 86.72 115.353C86.1025 114.529 85.5825 113.639 85.5825 113.376C85.5825 113.112 85.29 112.815 84.9325 112.716C84.575 112.618 84.12 112.156 83.8925 111.662C83.665 111.134 83.2425 110.409 82.9175 110.014C82.5925 109.585 82.3975 109.124 82.495 108.926C82.5925 108.728 82.43 108.201 82.17 107.706C81.91 107.179 81.585 105.893 81.4225 104.806C81.2925 103.718 81.195 100.092 81.26 96.7299C81.2925 93.3678 81.4225 90.0716 81.52 89.4123C81.6175 88.7201 81.845 87.8301 82.04 87.4346C82.2675 87.0061 82.4625 86.3798 82.5275 86.0172C82.5925 85.6546 82.82 84.8306 83.015 84.2043C83.2425 83.578 83.6 82.754 83.86 82.3914C84.0875 82.0288 84.2825 81.4025 84.2825 81.007C84.2825 80.5785 84.4125 80.2159 84.5425 80.1829C84.6725 80.117 85.1925 79.26 85.6475 78.2711C86.135 77.2823 86.785 75.799 87.1425 74.9749C87.4675 74.1509 87.955 72.5358 88.215 71.3821C88.475 70.2284 88.7675 69.2395 88.8975 69.1736C89.06 69.1077 89.0925 68.811 88.995 68.5473C88.8975 68.2836 88.9625 67.987 89.1575 67.8881C89.3525 67.7892 89.4825 67.3607 89.4825 66.8992C89.4825 66.4378 89.58 66.1411 89.71 66.207C89.8725 66.273 90.0025 65.8115 90.0675 65.1523C90.1 64.4601 90.36 63.1086 90.6525 62.1197C90.9125 61.1309 91.2375 59.9443 91.3025 59.4828C91.4 59.0213 91.465 58.395 91.465 58.0984C91.4325 57.7028 91.5625 57.604 91.8225 57.7358C92.1042 57.9116 92.1583 57.8567 91.985 57.571C91.855 57.3403 92.0175 56.9447 92.3425 56.6151C92.6675 56.2855 93.22 55.857 93.5775 55.6262C93.9025 55.4285 94.26 55.2307 94.3575 55.1977V55.1977ZM143.27 127.055C143.53 127.681 143.92 128.439 144.147 128.703C144.375 128.967 144.96 129.461 145.447 129.791C146.357 130.351 146.357 130.351 147.007 129.296C147.365 128.703 147.755 127.846 147.885 127.385C147.982 126.923 147.95 126.528 147.787 126.495C147.625 126.462 146.975 126.066 146.357 125.638C145.74 125.209 144.895 124.748 144.505 124.616C143.985 124.451 143.693 124.583 143.303 125.143C142.848 125.835 142.815 126.033 143.27 127.055ZM70.015 139.185C70.21 139.317 70.34 139.811 70.275 140.273C70.21 140.767 70.2425 141.097 70.3725 141.031C70.535 140.965 70.6325 141.262 70.6325 141.723C70.6325 142.185 70.665 142.646 70.73 142.811C70.7625 142.943 71.315 143.569 71.9325 144.228C72.55 144.887 74.24 146.503 75.67 147.854C77.295 149.403 78.595 150.952 79.18 152.106C79.7 153.095 80.3825 154.183 80.74 154.512C81.065 154.809 81.39 155.336 81.4225 155.666C81.4875 155.996 81.715 156.49 81.91 156.754C82.1375 157.017 82.2675 157.281 82.17 157.38C82.0725 157.479 82.235 157.776 82.495 158.039C82.7875 158.303 83.015 158.435 82.9825 158.303C82.9825 158.138 83.405 158.27 83.9575 158.534C84.51 158.797 84.9325 159.127 84.9325 159.292C84.9325 159.424 85.3225 159.556 85.81 159.588C86.33 159.588 87.305 159.786 88.02 159.984C88.735 160.182 89.97 160.413 90.7825 160.511C91.595 160.577 92.44 160.841 92.6675 161.072C92.895 161.303 93.09 161.368 93.09 161.171C93.0575 161.006 93.22 161.072 93.3825 161.335C93.5992 161.665 93.7075 161.698 93.7075 161.434C93.7075 161.138 94.065 161.039 94.7475 161.138C95.3325 161.204 96.21 161.105 96.6975 160.973C97.2175 160.808 97.64 160.478 97.64 160.281C97.6725 160.05 97.6725 159.588 97.64 159.292C97.6183 158.896 97.7375 158.775 97.9975 158.929C98.2792 159.105 98.3333 159.05 98.16 158.764C98.03 158.567 97.77 158.468 97.5425 158.633C97.25 158.797 97.2175 158.633 97.38 157.973C97.51 157.413 97.445 156.721 97.185 156.259C96.99 155.798 96.665 155.534 96.47 155.6C96.275 155.699 95.56 155.534 94.845 155.237C94.13 154.974 93.22 154.743 92.7975 154.743C92.4075 154.743 92.0825 154.611 92.0825 154.413C92.0825 154.249 91.8875 154.15 91.66 154.216C91.465 154.315 90.9775 154.183 90.62 153.919C90.2625 153.655 89.6125 153.458 89.1575 153.425C88.7025 153.425 87.89 153.095 87.37 152.699C86.8175 152.271 86.005 151.579 85.55 151.117C85.095 150.656 84.445 149.799 84.1525 149.238C83.86 148.645 83.34 147.887 82.9825 147.59C82.625 147.261 82.3 146.766 82.235 146.503C82.2025 146.239 81.8125 145.415 81.3575 144.69C80.935 143.964 80.5775 143.173 80.5775 142.943C80.545 142.679 80.1225 142.185 79.6025 141.789C79.05 141.393 78.1725 140.602 77.6525 140.042C77.1 139.515 76.2875 138.822 75.8325 138.559C75.3775 138.295 74.0775 138.031 72.9075 137.998C71.4125 137.932 70.6325 138.064 70.21 138.427C69.82 138.756 69.755 138.987 70.015 139.185V139.185ZM179.182 79.5896C179.28 79.5896 179.507 79.7544 179.702 79.9852C179.897 80.2159 180.06 81.4025 180.092 82.6551C180.125 83.9077 179.962 85.325 179.702 85.9513C179.475 86.5117 178.662 87.7972 177.915 88.7531C177.2 89.676 176.387 90.4671 176.16 90.4671C175.965 90.4671 175.51 90.7308 175.185 91.0604C174.665 91.5878 174.6 91.5878 174.047 91.0934C173.755 90.7967 172.91 90.2693 172.227 89.9397C171.512 89.5771 170.797 88.9508 170.602 88.4894C170.44 88.0279 170.05 87.3687 169.725 87.0061C169.432 86.6435 168.945 85.5228 168.652 84.5339C168.165 82.8199 168.165 82.6881 168.75 81.897C169.075 81.4355 169.725 81.04 170.18 81.007C170.667 80.9411 171.447 81.2048 171.935 81.5673C172.455 81.9629 173.3 82.2595 173.82 82.2595C174.372 82.2595 175.055 81.9629 175.38 81.5673C175.705 81.2048 176.16 80.9081 176.355 80.9081C176.582 80.9081 177.265 80.6114 177.882 80.2818C178.5 79.9192 179.085 79.6226 179.182 79.5896ZM132.122 94.0929C132.285 94.0929 132.382 94.3237 132.382 94.5873C132.382 94.851 132.512 95.0818 132.707 95.0818C132.902 95.0818 133 95.4773 132.967 95.9388C132.902 96.4003 132.967 96.8288 133.13 96.9277C133.26 96.9936 133.162 97.4221 132.967 97.8836C132.74 98.345 132.447 98.7076 132.317 98.7076C132.155 98.7076 132.057 98.9383 132.057 99.202C132.057 99.4657 131.765 99.7624 131.407 99.8613C131.05 99.9602 130.627 99.9602 130.432 99.8613C130.237 99.7624 130.27 99.4987 130.53 99.202C130.855 98.7735 130.822 98.6087 130.497 98.2791C130.27 98.0484 130.107 97.7847 130.107 97.6528C130.107 97.488 130.237 97.455 130.432 97.5539C130.627 97.6528 130.66 97.488 130.562 97.1584C130.465 96.8288 130.562 96.1366 130.79 95.5762C131.017 95.0488 131.375 94.4885 131.537 94.3566C131.732 94.2248 131.992 94.0929 132.155 94.0929H132.122ZM182.107 94.5214C182.27 94.8181 182.335 95.1807 182.237 95.3455C182.172 95.4773 182.432 96.0047 182.822 96.5321C183.375 97.2243 183.732 97.4221 184.252 97.2573C184.805 97.1254 185 97.1913 185 97.5539C185 97.8176 184.772 98.0484 184.512 98.0484C184.252 98.0484 183.992 98.3121 183.992 98.6417C183.96 98.9383 183.96 99.3009 183.992 99.4657C183.992 99.5976 183.83 100.191 183.602 100.817C183.407 101.443 183.115 101.905 182.952 101.806C182.822 101.74 182.595 101.081 182.4 100.356C182.107 99.202 181.945 99.0372 181.1 98.9713C180.58 98.9054 180.06 99.0372 179.995 99.202C179.93 99.3998 179.832 99.268 179.832 98.9713C179.8 98.6417 180.06 98.2461 180.352 98.0484C180.677 97.8836 181.035 97.8506 181.165 97.9824C181.295 98.1143 181.49 97.7847 181.62 97.2243C181.717 96.6969 181.717 95.9058 181.62 95.5103C181.522 95.0818 181.522 94.5544 181.62 94.3566C181.782 94.027 181.912 94.0929 182.107 94.5214ZM168.1 98.378C168.262 98.378 168.425 98.6087 168.425 98.8724C168.425 99.1361 168.717 99.7294 169.725 101.015L168.977 102.004C168.392 102.828 168.327 103.125 168.652 103.586C168.847 103.883 168.912 104.377 168.75 104.641C168.555 105.069 168.49 105.036 168.295 104.575C168.197 104.245 168.1 103.553 168.1 102.993C168.1 102.333 167.883 101.894 167.45 101.674C167.092 101.509 166.572 101.41 166.312 101.509C166.052 101.608 165.76 101.575 165.695 101.443C165.63 101.279 165.792 101.18 166.052 101.18C166.28 101.18 166.702 100.817 166.962 100.356C167.19 99.8942 167.482 99.268 167.58 98.9713C167.677 98.6417 167.905 98.378 168.1 98.378V98.378ZM107.975 100.059C108.592 100.488 109.145 100.85 109.177 100.85C109.177 100.85 109.307 101.345 109.405 101.938C109.502 102.498 109.502 102.993 109.34 102.993C109.21 102.993 108.885 103.355 108.625 103.817C108.3 104.377 107.91 104.608 107.39 104.575C106.967 104.509 106.513 104.344 106.383 104.146C106.22 103.982 106.025 103.454 105.927 102.993C105.83 102.531 105.895 101.806 106.025 101.345C106.187 100.883 106.545 100.422 106.837 100.29C107.097 100.125 107.227 99.8613 107.097 99.6635C106.935 99.4328 107.357 99.6305 107.975 100.059ZM60.72 103.982C60.785 103.982 61.4025 104.575 62.0525 105.3C62.735 105.992 63.125 106.651 62.9625 106.717C62.8 106.783 62.6375 107.673 62.6375 108.662C62.6375 109.684 62.54 110.442 62.3775 110.376C62.2475 110.31 62.02 109.75 61.89 109.19C61.695 108.431 61.2725 107.904 59.225 106.783L60.07 105.959C60.525 105.498 60.8175 104.904 60.7525 104.575C60.655 104.245 60.655 103.982 60.72 103.982V103.982ZM127.475 108.761C127.637 108.959 127.572 109.882 127.377 110.871C127.117 111.991 126.727 112.815 126.337 113.112C125.98 113.343 125.102 113.672 124.387 113.837C123.607 114.035 122.795 114.035 122.34 113.837C121.95 113.672 121.69 113.442 121.755 113.31C121.82 113.145 121.495 113.013 121.04 112.98C120.422 112.947 120.292 113.013 120.65 113.211C121.04 113.409 120.975 113.541 120.325 113.903C119.87 114.134 119.415 114.299 119.252 114.266C119.122 114.233 119.122 114.463 119.252 114.793C119.447 115.222 119.382 115.288 119.025 115.123C118.732 114.991 118.375 115.156 118.115 115.551C117.79 116.046 117.497 116.145 116.49 115.98C115.84 115.848 114.962 115.419 114.54 114.991C114.15 114.562 113.63 113.672 113.402 112.98C113.045 111.991 113.045 111.662 113.402 111.002C113.63 110.607 113.955 110.244 114.15 110.244C114.345 110.244 114.475 110.508 114.475 110.838C114.475 111.134 114.832 111.991 115.287 112.716C115.775 113.442 116.327 114.068 116.522 114.101C116.75 114.134 117.205 114.233 117.562 114.365C117.985 114.496 118.407 114.365 118.797 113.969C119.122 113.639 119.382 112.98 119.382 112.486C119.35 111.958 119.48 111.563 119.675 111.563C119.87 111.563 120 111.365 120 111.167C119.967 110.937 120.195 110.541 120.487 110.343C120.812 110.047 121.105 110.014 121.365 110.244C121.592 110.409 121.852 110.508 121.95 110.409C122.047 110.31 122.502 110.739 122.99 111.398C123.51 112.024 124.16 112.552 124.452 112.552C124.777 112.552 125.362 112.222 125.752 111.826C126.142 111.398 126.467 110.969 126.467 110.838C126.5 110.673 126.662 110.08 126.857 109.519C127.085 108.86 127.312 108.563 127.475 108.761V108.761ZM67.1875 115.189C67.675 115.189 68.195 115.485 68.4875 115.947C68.7475 116.342 68.975 117.265 68.975 117.99C68.975 118.716 68.7475 120.66 68.52 122.275C68.26 123.924 68.13 125.341 68.195 125.506C68.26 125.638 67.87 125.736 67.35 125.736C66.635 125.736 65.985 125.341 64.7825 124.187C63.905 123.264 62.8325 121.748 62.3125 120.627C61.5 118.847 61.4675 118.584 61.89 117.826C62.1175 117.364 62.6375 116.969 62.9625 116.903C63.32 116.837 63.84 117.034 64.1 117.331C64.36 117.628 64.685 117.859 64.815 117.826C64.9775 117.826 65.3675 117.232 65.725 116.507C66.245 115.485 66.57 115.189 67.1875 115.189ZM56.3 130.219C56.56 130.351 57.015 130.45 57.275 130.45C57.535 130.45 58.0875 130.384 58.4775 130.252C59.095 130.054 59.1925 130.12 59.0625 130.681C58.965 131.076 58.64 131.34 58.25 131.34C57.8925 131.34 57.4375 131.637 57.275 131.999C57.0583 132.439 57.0583 133.043 57.275 133.812C57.535 134.702 57.5025 134.933 57.1775 134.867C56.9825 134.801 56.7875 134.405 56.7875 133.944C56.7875 133.417 56.495 133.021 55.8775 132.757C55.39 132.527 55 132.197 55 131.999C55 131.801 55.1625 131.307 55.39 130.846C55.65 130.252 55.9425 130.054 56.3 130.219V130.219ZM143.985 152.436C144.017 152.436 144.375 152.732 144.765 153.095C145.318 153.622 145.415 153.985 145.22 154.842C145.122 155.402 144.993 156.721 144.928 157.71C144.895 158.698 144.733 159.72 144.603 159.951C144.473 160.149 144.505 160.347 144.7 160.347C144.895 160.347 144.96 161.863 144.862 164.566C144.797 166.873 144.7 169.774 144.667 171.059C144.635 172.345 144.44 173.762 144.18 174.29C143.92 174.784 143.725 175.476 143.725 175.839C143.725 176.201 143.432 177.058 143.107 177.751C142.782 178.41 142.23 179.234 141.905 179.563C141.547 179.86 140.8 180.19 140.215 180.289C139.273 180.453 139.207 180.388 139.5 179.794C139.662 179.432 140.052 179.135 140.312 179.135C140.605 179.135 140.898 178.673 141.028 177.915C141.19 177.256 141.482 176.63 141.742 176.531C142.035 176.399 142.1 176.004 141.97 175.278C141.872 174.685 141.873 173.993 142.003 173.795C142.1 173.564 142.23 172.839 142.23 172.213C142.262 171.587 142.522 170.664 142.847 170.169C143.205 169.543 143.27 169.213 143.01 169.18C142.717 169.114 142.717 168.818 143.01 168.027C143.302 167.203 143.302 166.873 143.01 166.708C142.717 166.51 142.685 164.994 142.847 160.775C143.01 157.05 142.977 155.073 142.75 155.073C142.555 155.073 142.588 154.677 142.815 154.018C143.043 153.425 143.367 152.831 143.562 152.699C143.725 152.568 143.92 152.436 143.953 152.436H143.985Z" fill="#D44A7B"/>
<path d="M94.13 72.1073C94.065 71.4151 94.195 70.657 94.39 70.4592C94.585 70.2285 94.8775 70.0307 95.04 70.0307C95.235 70.0307 95.235 70.1955 95.0725 70.4592C94.91 70.657 94.6825 71.2503 94.5525 71.7777C94.4225 72.4369 94.455 72.6017 94.78 72.4369C95.0075 72.3051 94.975 72.4699 94.6825 72.7995C94.4225 73.0962 94.195 73.3599 94.195 73.3269C94.195 73.3269 94.1625 72.7665 94.13 72.1073Z" fill="#F7D3DF"/>
<path d="M96.47 75.3046C96.3725 75.3046 96.3075 74.942 96.3075 74.4806C96.3075 74.0191 96.4375 73.6565 96.6325 73.6565C96.8275 73.6565 97.0875 74.085 97.2825 74.6454C97.5425 75.4694 97.5425 75.6013 97.12 75.4694C96.86 75.3706 96.5675 75.3046 96.47 75.3046Z" fill="#F7D3DF"/>
<path d="M139.695 108.431C139.955 108.333 140.183 108.036 140.215 107.739C140.215 107.377 140.475 107.278 141.06 107.344C141.548 107.41 141.97 107.64 142.035 107.838C142.1 108.069 141.905 108.267 141.613 108.267C141.32 108.267 140.833 108.563 140.54 108.926C140.248 109.321 139.825 109.618 139.63 109.585C139.403 109.585 139.208 109.354 139.208 109.091C139.208 108.827 139.435 108.53 139.695 108.431Z" fill="#F7D3DF"/>
<path d="M99.4275 114.365C99.07 114.365 98.7775 114.101 98.7125 113.771C98.68 113.376 98.875 113.211 99.4275 113.211C99.98 113.211 100.175 113.376 100.11 113.771C100.078 114.101 99.7525 114.365 99.4275 114.365Z" fill="#F7D3DF"/>
<path d="M147.658 146.569C147.625 145.777 147.755 144.855 147.95 144.492C148.178 144.162 148.405 143.866 148.503 143.866C148.568 143.866 148.6 144.426 148.535 145.085C148.47 145.777 148.243 146.7 148.048 147.162C147.723 147.92 147.69 147.887 147.658 146.569Z" fill="#F7D3DF"/>
</svg>
